<?xml version="1.0" encoding="UTF-8"?>
<!-- Created with Inkscape (http://www.inkscape.org/) -->
<svg width="615.68" height="387.89" version="1.1" viewBox="0 0 615.68 387.89" xmlns="http://www.w3.org/2000/svg" xmlns:xlink="http://www.w3.org/1999/xlink">
 <defs>
  <clipPath id="clipPath7">
   <path transform="matrix(1 0 0 -1 -20.012 802.79)" d="m0 0h595v842h-595z"/>
  </clipPath>
  <clipPath id="clipPath12">
   <path transform="matrix(1 0 0 -1 -47.432 795.34)" d="m0 0h595v842h-595z"/>
  </clipPath>
  <clipPath id="clipPath15">
   <path transform="matrix(1 0 0 -1 -361.65 805.66)" d="m0 0h595v842h-595z"/>
  </clipPath>
  <clipPath id="clipPath18">
   <path transform="matrix(1 0 0 -1 -358.21 803.59)" d="m0 0h595v842h-595z"/>
  </clipPath>
  <clipPath id="clipPath21">
   <path transform="matrix(.99985 -.017452 -.017452 -.99985 -367.15 813.53)" d="m0 0h595v842h-595z"/>
  </clipPath>
  <clipPath id="clipPath24">
   <path transform="matrix(1 0 0 -1 -344.79 786.6)" d="m0 0h595v842h-595z"/>
  </clipPath>
  <clipPath id="clipPath27">
   <path transform="matrix(1 0 0 -1 -345.15 795.57)" d="m0 0h595v842h-595z"/>
  </clipPath>
  <clipPath id="clipPath30">
   <path transform="matrix(1 0 0 -1 -343.47 795.52)" d="m0 0h595v842h-595z"/>
  </clipPath>
  <clipPath id="clipPath33">
   <path transform="matrix(1 0 0 -1 -343.48 799.29)" d="m0 0h595v842h-595z"/>
  </clipPath>
  <clipPath id="clipPath36">
   <path transform="matrix(1 0 0 -1 -346.24 799.09)" d="m0 0h595v842h-595z"/>
  </clipPath>
  <clipPath id="clipPath39">
   <path transform="matrix(1 0 0 -1 -343.81 793.78)" d="m0 0h595v842h-595z"/>
  </clipPath>
  <clipPath id="clipPath42">
   <path transform="matrix(1 0 0 -1 -345.98 786.71)" d="m0 0h595v842h-595z"/>
  </clipPath>
  <clipPath id="clipPath45">
   <path transform="matrix(1 0 0 -1 -347.58 795.55)" d="m0 0h595v842h-595z"/>
  </clipPath>
  <clipPath id="clipPath48">
   <path transform="matrix(1 0 0 -1 -345.39 802.54)" d="m0 0h595v842h-595z"/>
  </clipPath>
  <clipPath id="clipPath51">
   <path transform="matrix(1 0 0 -1 -344.05 786.78)" d="m0 0h595v842h-595z"/>
  </clipPath>
  <clipPath id="clipPath54">
   <path transform="matrix(1 0 0 -1 -344.92 786.76)" d="m0 0h595v842h-595z"/>
  </clipPath>
  <clipPath id="clipPath57">
   <path transform="matrix(1 0 0 -1 -345.18 786.91)" d="m0 0h595v842h-595z"/>
  </clipPath>
  <clipPath id="clipPath59">
   <path transform="matrix(.70711 .70711 .70711 -.70711 -635.75 232.51)" d="m0 0h595v842h-595z"/>
  </clipPath>
  <clipPath id="clipPath62">
   <path transform="matrix(.70711 -.70711 -.70711 -.70711 469.61 539.07)" d="m0 0h595v842h-595z"/>
  </clipPath>
  <clipPath id="clipPath65">
   <path transform="matrix(1 0 0 -1 -108.23 753.49)" d="m0 0h595v842h-595z"/>
  </clipPath>
  <clipPath id="clipPath69">
   <path transform="matrix(1 0 0 -1 -239.81 636.28)" d="m0 0h595v842h-595z"/>
  </clipPath>
  <clipPath id="clipPath71">
   <path transform="matrix(1 0 0 -1 -251.69 645.28)" d="m0 0h595v842h-595z"/>
  </clipPath>
  <clipPath id="clipPath73">
   <path transform="matrix(1 0 0 -1 -167.33 587.42)" d="m0 0h595v842h-595z"/>
  </clipPath>
  <clipPath id="clipPath75">
   <path transform="matrix(1 0 0 -1 -172.66 574.33)" d="m0 0h595v842h-595z"/>
  </clipPath>
  <clipPath id="clipPath77">
   <path transform="matrix(1 0 0 -1 -14.986 819.68)" d="m0 0h595v842h-595z"/>
  </clipPath>
  <clipPath id="clipPath79">
   <path transform="matrix(1 0 0 -1 -151.32 543.7)" d="m0 0h595v842h-595z"/>
  </clipPath>
  <clipPath id="clipPath81">
   <path transform="matrix(1 0 0 -1 -203.52 543.7)" d="m0 0h595v842h-595z"/>
  </clipPath>
  <clipPath id="clipPath83">
   <path transform="matrix(1 0 0 -1 -339.66 819.68)" d="m0 0h595v842h-595z"/>
  </clipPath>
 </defs>
 <g transform="translate(-1.0488 -10.258)">
  <path d="m66.412 52.278c-1.7768 0-3.5561 0.6804-4.9117 2.036-2.7112 2.7112-2.7112 7.1059 0 9.8171 2.7113 2.7112 7.1122 2.7112 9.8235 0s2.7112-7.1059 0-9.8171c-1.3556-1.3556-3.135-2.036-4.9117-2.036zm-8.3092 15.308c-2.6264 0-4.7629 1.0205-5.5162 1.896-1.303 1.5065-1.3005 3.3007-1.2597 3.9319v25.589c0 1.2827 1.0141 2.3032 2.2968 2.3032 1.2827 0 2.3032-1.0409 2.3032-2.3032v-21.174h2.0996v22.109h0.01909v30.113c-1.4e-5 2.0156 1.6491 3.6648 3.6647 3.6648s3.6647-1.6492 3.6647-3.6648v-30.113h2.055v30.113c0 2.0156 1.6491 3.6648 3.6647 3.6648 2.0156 0 3.6647-1.6492 3.6647-3.6648v-30.132h0.01909v-22.109h2.0996v21.174c0 1.2827 1.0141 2.2968 2.2968 2.2968s2.3032-1.0345 2.3032-2.2968v-25.57c0.06108-0.6312 0.04328-2.4457-1.2597-3.9319-0.75328-0.8552-2.8961-1.896-5.5225-1.896h-8.2838z" fill="#e59f00"/>
  <path d="m16.145 52.278c-1.7768 0-3.5561 0.6804-4.9117 2.036-2.7112 2.7112-2.7112 7.1059 0 9.8171 2.7113 2.7112 7.1122 2.7112 9.8235 0s2.7112-7.1059 0-9.8171c-1.3556-1.3556-3.135-2.036-4.9117-2.036zm-8.3092 15.308c-2.6264 0-4.7629 1.0205-5.5162 1.896-1.303 1.5065-1.3005 3.3007-1.2597 3.9319v25.589c5.3e-6 1.2827 1.0142 2.3032 2.2968 2.3032 1.2827 0 2.3032-1.0409 2.3032-2.3032v-21.174h2.0996v22.109h0.019088v30.113c-4e-6 2.0156 1.6491 3.6648 3.6647 3.6648 2.0156 0 3.6647-1.6492 3.6647-3.6648v-30.113h2.055v30.113c0 2.0156 1.6491 3.6648 3.6647 3.6648 2.0156 0 3.6647-1.6492 3.6647-3.6648v-30.132h0.01908v-22.109h2.0996v21.174c0 1.2827 1.0141 2.2968 2.2968 2.2968 1.2826 0 2.3032-1.0345 2.3032-2.2968v-25.57c0.06108-0.6312 0.04328-2.4457-1.2597-3.9319-0.75328-0.8552-2.8961-1.896-5.5225-1.896h-8.2838z" fill="#e59f00"/>
  <path d="m41.495 52.278c-1.7768 0-3.5561 0.6804-4.9117 2.036-2.7112 2.7112-2.7112 7.1059 0 9.8171 2.7113 2.7112 7.1122 2.7112 9.8235 0s2.7112-7.1059 0-9.8171c-1.3556-1.3556-3.135-2.036-4.9117-2.036zm-8.3092 15.308c-2.6264 0-4.7629 1.0205-5.5161 1.896-1.303 1.5065-1.3005 3.3007-1.2597 3.9319v25.589c0 1.2827 1.0142 2.3032 2.2968 2.3032 1.2827 0 2.3032-1.0409 2.3032-2.3032v-21.174h2.0996v22.109h0.01909v30.113c-1.3e-5 2.0156 1.6491 3.6648 3.6647 3.6648s3.6647-1.6492 3.6647-3.6648v-30.113h2.055v30.113c0 2.0156 1.6491 3.6648 3.6647 3.6648 2.0156 0 3.6647-1.6492 3.6647-3.6648v-30.132h0.01909v-22.109h2.0996v21.174c0 1.2827 1.0141 2.2968 2.2968 2.2968 1.2826 0 2.3032-1.0345 2.3032-2.2968v-25.57c0.06108-0.6312 0.04328-2.4457-1.2597-3.9319-0.75328-0.8552-2.8961-1.896-5.5225-1.896h-8.2838z" fill="#e59f00"/>
  <path transform="matrix(1.3333 0 0 1.3333 26.399 52.278)" d="m11.322 0c-1.3326 0-2.6671 0.51024-3.6838 1.527-2.0334 2.0334-2.0334 5.3294 0 7.3628 2.0334 2.0334 5.3342 2.0334 7.3676 0 2.0334-2.0334 2.0334-5.3294 0-7.3628-1.0167-1.0167-2.3512-1.527-3.6838-1.527zm-6.2319 11.481c-1.9698 0-3.5721 0.76539-4.1371 1.422-0.97726 1.13-0.97535 2.4756-0.94481 2.949v19.192c4.28e-6 0.96198 0.76062 1.7274 1.7226 1.7274 0.96199 1e-5 1.7274-0.78066 1.7274-1.7274v-15.88h1.5747v16.582h0.014316v22.585c-3e-6 1.5117 1.2368 2.7485 2.7485 2.7485 1.5117 0 2.7485-1.2368 2.7485-2.7485v-22.585h1.5413v22.585c0 1.5117 1.2368 2.7485 2.7485 2.7485 1.5117 0 2.7485-1.2368 2.7485-2.7485v-22.599h0.01431v-16.582h1.5747v15.88c0 0.962 0.76061 1.7226 1.7226 1.7226 0.96198-1e-5 1.7274-0.7759 1.7274-1.7226v-19.178c0.04581-0.47336 0.03246-1.8343-0.94481-2.949-0.56496-0.64133-2.1721-1.422-4.1419-1.422h-6.2128z" clip-path="url(#clipPath7)" fill="none" stroke="#fff" stroke-width=".25"/>
  <path d="m102.97 62.211c-1.7768 0-3.5561 0.68027-4.9117 2.0359-2.7112 2.7113-2.7112 7.1059 0 9.8172 2.7113 2.7112 7.1122 2.7112 9.8235 0 2.7112-2.7113 2.7112-7.1059 0-9.8172-1.3556-1.3556-3.135-2.0359-4.9117-2.0359zm-8.3092 15.308c-2.6264 0-4.7629 1.0205-5.5162 1.896-1.303 1.5067-1.3005 3.3008-1.2597 3.932v25.589c0 1.2827 1.0141 2.3032 2.2968 2.3032s2.3032-1.0409 2.3032-2.3032v-21.174h2.0996v22.109h0.01909v30.113c-1.4e-5 2.0156 1.6491 3.6647 3.6647 3.6647 2.0156 0 3.6647-1.6491 3.6647-3.6647v-30.113h2.055v30.113c0 2.0156 1.6491 3.6647 3.6647 3.6647 2.0156 0 3.6647-1.6491 3.6647-3.6647v-30.132h0.0191v-22.109h2.0996v21.174c0 1.2827 1.0141 2.2968 2.2968 2.2968 1.2826 0 2.3032-1.0345 2.3032-2.2968v-25.57c0.0611-0.6312 0.0433-2.4457-1.2598-3.932-0.75328-0.85507-2.8961-1.896-5.5225-1.896h-8.2838z" fill="#57b4e9"/>
  <path d="m52.705 62.211c-1.7768 0-3.5561 0.68027-4.9117 2.0359-2.7112 2.7113-2.7112 7.1059 0 9.8172 2.7113 2.7112 7.1122 2.7112 9.8235 0 2.7112-2.7113 2.7112-7.1059 0-9.8172-1.3556-1.3556-3.135-2.0359-4.9117-2.0359zm-8.3092 15.308c-2.6264 0-4.7629 1.0205-5.5162 1.896-1.303 1.5067-1.3005 3.3008-1.2597 3.932v25.589c1.4e-5 1.2827 1.0142 2.3032 2.2968 2.3032 1.2827 0 2.3032-1.0409 2.3032-2.3032v-21.174h2.0996v22.109h0.01908v30.113c0 2.0156 1.6491 3.6647 3.6647 3.6647 2.0156 0 3.6647-1.6491 3.6647-3.6647v-30.113h2.055v30.113c0 2.0156 1.6491 3.6647 3.6647 3.6647s3.6647-1.6491 3.6647-3.6647v-30.132h0.01908v-22.109h2.0996v21.174c1.4e-5 1.2827 1.0142 2.2968 2.2968 2.2968 1.2826 0 2.3032-1.0345 2.3032-2.2968v-25.57c0.06107-0.6312 0.04327-2.4457-1.2597-3.932-0.75328-0.85507-2.8961-1.896-5.5225-1.896h-8.2838z" fill="#57b4e9"/>
  <path d="m78.055 62.211c-1.7768 0-3.5561 0.68027-4.9117 2.0359-2.7112 2.7113-2.7112 7.1059 0 9.8172 2.7113 2.7112 7.1122 2.7112 9.8235 0 2.7112-2.7113 2.7112-7.1059 0-9.8172-1.3556-1.3556-3.135-2.0359-4.9117-2.0359zm-8.3092 15.308c-2.6264 0-4.7629 1.0205-5.5162 1.896-1.303 1.5067-1.3005 3.3008-1.2597 3.932v25.589c1.3e-5 1.2827 1.0142 2.3032 2.2968 2.3032s2.3032-1.0409 2.3032-2.3032v-21.174h2.0996v22.109h0.01908v30.113c0 2.0156 1.6491 3.6647 3.6647 3.6647 2.0156 0 3.6647-1.6491 3.6647-3.6647v-30.113h2.055v30.113c0 2.0156 1.6491 3.6647 3.6647 3.6647 2.0156 0 3.6647-1.6491 3.6647-3.6647v-30.132h0.01909v-22.109h2.0996v21.174c0 1.2827 1.0141 2.2968 2.2968 2.2968 1.2826 0 2.3032-1.0345 2.3032-2.2968v-25.57c0.06108-0.6312 0.04328-2.4457-1.2597-3.932-0.75328-0.85507-2.8961-1.896-5.5225-1.896h-8.2838z" fill="#57b4e9"/>
  <path transform="matrix(1.3333 0 0 1.3333 62.958 62.211)" d="m11.322 0c-1.3326 0-2.6671 0.51024-3.6838 1.527-2.0334 2.0334-2.0334 5.3294 0 7.3628 2.0334 2.0334 5.3342 2.0334 7.3676 0 2.0334-2.0334 2.0334-5.3294 0-7.3628-1.0167-1.0167-2.3512-1.527-3.6838-1.527zm-6.2319 11.481c-1.9698 0-3.5721 0.76539-4.1371 1.422-0.97726 1.13-0.97535 2.4756-0.94481 2.949v19.192c4.28e-6 0.96198 0.76062 1.7274 1.7226 1.7274 0.96199 1e-5 1.7274-0.78066 1.7274-1.7274v-15.88h1.5747v16.582h0.014316v22.585c-3e-6 1.5117 1.2368 2.7485 2.7485 2.7485 1.5117 0 2.7485-1.2368 2.7485-2.7485v-22.585h1.5413v22.585c0 1.5117 1.2368 2.7485 2.7485 2.7485 1.5117 0 2.7485-1.2368 2.7485-2.7485v-22.599h0.01431v-16.582h1.5747v15.88c0 0.962 0.76061 1.7226 1.7226 1.7226 0.96198-1e-5 1.7274-0.7759 1.7274-1.7226v-19.178c0.04581-0.47336 0.03246-1.8343-0.94481-2.949-0.56496-0.64133-2.1721-1.422-4.1419-1.422h-6.2128z" clip-path="url(#clipPath12)" fill="none" stroke="#fff" stroke-width=".25"/>
  <path d="m484.07 48.46c-1.1825 0-2.1621 0.9796-2.1621 2.162v64.658c0 1.1824 0.9796 2.1699 2.1621 2.1699h40.458l-0.14947 0.59746-1.6903 8.4596h-4.9531v3.1448h28.956v-3.1448h-4.9531l-1.6904-8.4596-0.12573-0.59746h40.435c1.1824 0 2.162-0.98747 2.162-2.1699v-64.658c0.0252-1.1824-0.956-2.162-2.1384-2.162zm48.155 2.0363c0.52827 0 0.9592 0.40573 0.95907 0.9592 0 0.52827-0.4308 0.9592-0.95907 0.9592-0.5284 0-0.9592-0.43093-0.9592-0.9592 0-0.5284 0.4308-0.9592 0.9592-0.9592zm-44.531 4.4813h89.061v50.742h-89.061z" fill="#d5d5d5"/>
  <path transform="matrix(1.3333 0 0 1.3333 481.91 48.46)" d="m1.6215 0c-0.88684 0-1.6215 0.73471-1.6215 1.6215v48.493c0 0.88684 0.7347 1.6274 1.6215 1.6274h30.344l-0.11203 0.44814-1.2678 6.3447h-3.7148v2.3586h21.717v-2.3586h-3.7148l-1.2678-6.3447-0.09435-0.44814h30.326c0.88684 0 1.6215-0.74062 1.6216-1.6274v-48.493c0.01887-0.88684-0.71702-1.6216-1.6039-1.6215zm36.116 1.5272c0.39625 0 0.71938 0.30426 0.71938 0.71938 0 0.39625-0.32315 0.71938-0.71938 0.71938-0.39625 0-0.71938-0.32313-0.71938-0.71938s0.32315-0.71938 0.71938-0.71938zm-33.398 3.361h66.796v38.056h-66.796z" clip-path="url(#clipPath15)" fill="none" stroke="#5e5e5e" stroke-width="2"/>
  <path d="m532.22 51.219c-12.103 0-19.104 6.048-21.586 14.693-1.1713 4.0993-1.2253 8.9273-0.8628 14.17-0.6692-0.02787-1.4223-0.02787-2.2309 0-3.9321 0.1952-1.0371 9.262 1.6123 14.588 0.55773 1.0876 1.7289 0.83667 2.2309 0.6972 1.0039 9.0076 2.4035 11.709 5.9173 15.669l-0.0611 4.2964c-0.0836 5.8563-3.4319 10.707-8.8977 13.83-0.44613 0.25093-0.88706 0.502-1.3333 0.6972-2.5656 1.2548-5.3823 1.8928-8.2267 2.0043-13.163 0.6136-17.487 6.6128-21.447 14.449h109.76c-3.96-7.8363-8.2843-13.835-21.447-14.449-2.8445-0.13934-5.6889-0.74934-8.2267-2.0043-0.41826-0.2232-0.85933-0.44627-1.3333-0.6972-5.4659-3.1233-8.842-7.974-8.8977-13.83l-0.0523-4.2964c3.5137-3.96 4.8767-6.6615 5.9085-15.669 0.47414 0.16733 1.6732 0.41827 2.2309-0.6972 2.6772-5.3264 5.5531-14.393 1.6209-14.588-0.80867-0.02787-1.5616-0.05573-2.2309 0 0.36253-5.2149 0.3276-10.071-0.87147-14.17-2.482-8.6451-9.4747-14.693-21.578-14.693z" fill="#fff"/>
  <path transform="matrix(1.3333 0 0 1.3333 477.34 51.219)" d="m41.164 0c-9.0772 0-14.328 4.536-16.19 11.02-0.87845 3.0746-0.91898 6.6955-0.64707 10.628-0.50197-0.02091-1.0667-0.02091-1.6732 0-2.9491 0.14641-0.77779 6.9465 1.2092 10.941 0.41831 0.81569 1.2968 0.62746 1.6732 0.52288 0.75295 6.7556 1.8026 8.7818 4.438 11.752l-0.04576 3.2223c-0.06274 4.3922-2.5739 8.0302-6.6733 10.373-0.33465 0.18824-0.66536 0.37648-1 0.52288-1.9242 0.94119-4.0367 1.4196-6.17 1.5033-9.872 0.46014-13.115 4.9596-16.085 10.837h82.321c-2.97-5.8772-6.2132-10.377-16.085-10.837-2.1334-0.10457-4.2667-0.56209-6.17-1.5033-0.31373-0.16732-0.64444-0.33464-1-0.52288-4.0994-2.3425-6.6315-5.9805-6.6733-10.373l-0.03921-3.2223c2.6353-2.97 3.6576-4.9962 4.4314-11.752 0.35556 0.12549 1.2549 0.31373 1.6732-0.52288 2.0079-3.9948 4.1648-10.795 1.2157-10.941-0.60654-0.02091-1.1712-0.04183-1.6732 0 0.2719-3.9112 0.24575-7.553-0.6536-10.628-1.8615-6.4837-7.106-11.02-16.183-11.02z" clip-path="url(#clipPath18)" fill="none" stroke="#000"/>
  <path d="m507.55 78.994c0.13627-17.952 11.469-32.369 25.075-31.898 13.021 0.4508 23.296 14.505 23.166 31.686z" fill="#d5d5d5"/>
  <path transform="matrix(1.3331 .02327 -.02327 1.3331 508.11 46.665)" d="m0.0015699 24.25c-0.1328-13.464 8.177-24.423 18.386-24.248 9.7701 0.16762 17.659 10.573 17.787 23.458z" clip-path="url(#clipPath21)" fill="none" stroke="#000" stroke-width=".5"/>
  <path d="m512.35 70.545c0.76827 0.76827 0.76827 2.0137 0 2.7819-0.76813 0.76827-2.0136 0.76827-2.7819 0-0.76813-0.76813-0.76813-2.0136 0-2.7819 0.76827-0.76813 2.0137-0.76813 2.7819 0z" fill="#5e5e5e"/>
  <path transform="matrix(1.3333 0 0 1.3333 459.44 73.86)" d="m0 54.746c33.263-1.6374 46.247-19.886 38.952-54.746" clip-path="url(#clipPath24)" fill="none" stroke="#000" stroke-width=".25"/>
  <path d="m529.29 58.564c0.7076 0.76813 0.7076 2.0136 0 2.7819-0.7076 0.76813-1.8548 0.76813-2.5624 0-0.7076-0.76827-0.7076-2.0137 0-2.7819 0.7076-0.76827 1.8548-0.76827 2.5624 0z" fill="#5e5e5e"/>
  <path transform="matrix(1.3333 0 0 1.3333 459.91 61.908)" d="m0 64.397c38.696-0.16768 55.773-21.633 51.232-64.397" clip-path="url(#clipPath27)" fill="none" stroke="#000" stroke-width=".25"/>
  <path d="m516.66 60.61c0.76827 0.75293 0.76827 1.9735 0 2.7264-0.76813 0.7528-2.0136 0.7528-2.7819 0-0.76813-0.75293-0.76813-1.9735 0-2.7264 0.76827-0.7528 2.0137-0.7528 2.7819 0z" fill="#5e5e5e"/>
  <path transform="matrix(1.3333 0 0 1.3333 457.67 61.973)" d="m0 65.381c34.351 1.636 48.75-20.158 43.197-65.381" clip-path="url(#clipPath30)" fill="none" stroke="#000" stroke-width=".25"/>
  <path d="m522.42 53.624c0.69853 0.772 0.69853 2.0236 0 2.7956-0.69867 0.77187-1.8313 0.77187-2.53 0-0.69867-0.772-0.69867-2.0236 0-2.7956 0.69867-0.77187 1.8313-0.77187 2.53 0z" fill="#5e5e5e"/>
  <path transform="matrix(1.3333 0 0 1.3333 457.69 56.943)" d="m0 67.459c41.307-1.6311 57.281-24.117 47.921-67.459" clip-path="url(#clipPath33)" fill="none" stroke="#000" stroke-width=".25"/>
  <path d="m543.41 53.845c0.69854 0.772 0.69854 2.0235 0 2.7955-0.69866 0.772-1.8313 0.772-2.53 0-0.69866-0.772-0.69866-2.0235 0-2.7955 0.69867-0.772 1.8313-0.772 2.53 0z" fill="#5e5e5e"/>
  <path transform="matrix(1.3333 0 0 1.3333 461.36 57.22)" d="m0 68.079c40.153 0.7504 60.349-21.942 60.587-68.079" clip-path="url(#clipPath36)" fill="none" stroke="#000" stroke-width=".25"/>
  <path d="m549.71 60.927c0.69853 0.772 0.69853 2.0236 0 2.7956-0.69867 0.77187-1.8313 0.77187-2.53 0-0.69867-0.772-0.69867-2.0236 0-2.7956 0.69867-0.77187 1.8313-0.77187 2.53 0z" fill="#5e5e5e"/>
  <path transform="matrix(1.3333 0 0 1.3333 458.13 64.293)" d="m0 62.073c40.722 5.9977 63.257-14.693 67.604-62.073" clip-path="url(#clipPath39)" fill="none" stroke="#000" stroke-width=".25"/>
  <path d="m552.95 70.369c0.69867 0.77187 0.69867 2.0235 0 2.7955-0.69866 0.77187-1.8313 0.77187-2.5299 0-0.69867-0.772-0.69867-2.0236 0-2.7955 0.69853-0.772 1.8312-0.772 2.5299 0z" fill="#5e5e5e"/>
  <path transform="matrix(1.3333 0 0 1.3333 461.02 73.719)" d="m0 55.436c39.328 1.9798 61.925-16.499 67.792-55.436" clip-path="url(#clipPath42)" fill="none" stroke="#000" stroke-width=".25"/>
  <path d="m538.95 58.566c0.69866 0.77187 0.69866 2.0235 0 2.7955-0.69854 0.77187-1.8313 0.77187-2.5299 0-0.69867-0.772-0.69867-2.0236 0-2.7955 0.69853-0.772 1.8313-0.772 2.5299 0z" fill="#5e5e5e"/>
  <path transform="matrix(1.3333 0 0 1.3333 463.15 61.94)" d="m0 64.462c38.475-0.44934 57.124-21.937 55.945-64.462" clip-path="url(#clipPath45)" fill="none" stroke="#000" stroke-width=".25"/>
  <path d="m533.53 48.954c0.84013 0.84 0.84013 2.2017 0 3.0417-0.84027 0.83987-2.2027 0.83987-3.0429 0-0.84027-0.84-0.84027-2.2017 0-3.0417 0.84026-0.83987 2.2027-0.83987 3.0429 0z" fill="#5e5e5e"/>
  <path transform="matrix(1.3333 0 0 1.3333 460.24 52.61)" d="m0 71.356c42.121 2.3995 60.131-21.386 54.03-71.356" clip-path="url(#clipPath48)" fill="none" stroke="#000" stroke-width=".25"/>
  <path d="m523.21 70.274c0.69867 0.772 0.69867 2.0236 0 2.7955-0.69867 0.772-1.8313 0.772-2.53 0-0.69867-0.77187-0.69867-2.0235 0-2.7955 0.69867-0.77187 1.8313-0.77187 2.53 0z" fill="#5e5e5e"/>
  <path transform="matrix(1.3333 0 0 1.3333 458.45 73.621)" d="m0 55.195c36.584-4.3978 52.531-22.796 47.842-55.195" clip-path="url(#clipPath51)" fill="none" stroke="#000" stroke-width=".25"/>
  <path d="m533.63 70.274c0.69853 0.772 0.69853 2.0236 0 2.7955-0.69867 0.772-1.8313 0.772-2.53 0-0.69867-0.77187-0.69867-2.0235 0-2.7955 0.69867-0.77187 1.8313-0.77187 2.53 0z" fill="#5e5e5e"/>
  <path transform="matrix(1.3333 0 0 1.3333 459.6 73.648)" d="m0 55.272c37.161 2.4431 55.365-15.981 54.612-55.272" clip-path="url(#clipPath54)" fill="none" stroke="#000" stroke-width=".25"/>
  <path d="m544.59 70.077c0.69866 0.772 0.69866 2.0236 0 2.7955-0.69854 0.772-1.8313 0.772-2.5299 0-0.69867-0.77187-0.69867-2.0235 0-2.7955 0.69853-0.772 1.8313-0.772 2.5299 0z" fill="#5e5e5e"/>
  <path transform="matrix(1.3333 0 0 1.3333 459.95 73.451)" d="m0 55.853c40.112 1.5477 60.94-17.07 62.483-55.853" clip-path="url(#clipPath57)" fill="none" stroke="#000" stroke-width=".25"/>
  <path transform="matrix(.94281 -.94281 .94281 .94281 379.89 304.06)" d="m0 0h132.82" clip-path="url(#clipPath59)" fill="none" stroke="#000" stroke-width="2"/>
  <path d="m508.7 184.31 4.5255-13.576-13.576 4.5255z"/>
  <path transform="matrix(.94281 .94281 -.94281 .94281 65.199 171.67)" d="m0 0h132.82" clip-path="url(#clipPath62)" fill="none" stroke="#000" stroke-width="2"/>
  <path d="m184.96 300.48 13.576 4.5255-4.5255-13.576z"/>
  <path transform="matrix(1.3333 0 0 1.3333 144.03 118.01)" d="m0 0h207.21" clip-path="url(#clipPath65)" fill="none" stroke="#000" stroke-width="2"/>
  <path d="m418.98 124.41 12.8-6.4-12.8-6.4z"/>
  <path d="m267.44 261.38c-6.362 0.0685-13.573 3.1385-16.577 8.8043h-0.0309c-1.7873 3.7979-0.8192 6.6524-0.74466 6.8263 0.14893 0.37226-0.0467 0.79733-0.41894 0.94626-0.0745 0.0249-0.1272 0.0465-0.20173 0.0465-0.32267 0.0249-0.62053-0.1752-0.74467-0.47307-0.0496-0.17387-1.0395-2.9725 0.32587-6.7952 0.14893-0.4468-0.14893-0.9232-0.62067-0.9232-7.6701 0-15.513 10.776-15.165 17.205 0.0249 0.49653 0.59733 0.7168 0.96973 0.41893 1.0425-0.8936 2.1812-1.6135 3.3976-2.1099 0.32267-0.12414 0.69347-0.0264 0.892 0.27146 0.27307 0.39707 0.0729 0.9448-0.34907 1.0937-1.6879 0.67013-3.0268 1.7143-4.1189 2.9555-4.8901 6.6276-1.7625 16.429 4.0957 21.89 1.0177 0.8936 2.0601 1.6663 3.1028 2.3116 0.4716 0.27307 1.4133 0.77267 1.3885 0.82227 6.578 3.6737 14.005 3.3759 16.934 3.1028 0.62066-0.0496 1.2412 0.0947 1.7376 0.44227 1.0425 0.69493 8.0875 5.5865 19.928 5.3136 2.9291-0.0745 6.5315-0.42054 10.379-1.6368 5.0887-1.6135 9.0339-5.7077 8.7112-10.697-0.844-6.8013-4.0663-10.851-10.371-13.73-3.1028-1.4148-6.6572-1.6661-9.3628-1.5669-1.6135 0.0745-3.0485 0.25133-4.2897 0.45l-0.1784 0.0465c-4.2695 0.74467-6.4291 2.0617-6.4539 2.0867-0.0992 0.0744-0.21867 0.1008-0.318 0.1008-0.27307 0.0248-0.526-0.10094-0.67493-0.34907-0.22334-0.3476-0.0977-0.7928 0.22506-1.0163 0.0992-0.0496 1.3932-0.84546 3.9251-1.5901 0.4468-0.12413 0.51973-0.72147 0.14733-0.9696-2.4575-1.6383-5.7123-4.5177-6.6556-8.688-0.0992-0.39707 0.1536-0.79427 0.5508-0.8688 0.3972-0.0992 0.76947 0.15213 0.8688 0.57413 1.0425 4.6417 5.5788 7.6236 7.664 8.7655 0.5212 0.27307 1.1201 0.394 1.6911 0.2948 2.4077-0.3476 8.4117-0.8968 13.451 1.4117 1.8865 0.844 3.5063 1.8183 4.8715 2.8856 0.49653 0.3972 1.2164 0.41894 1.7376 0.0465 2.9539-2.0851 5.9047-2.8779 8.8585-2.3813 3.9965 0.69494 6.8232 3.6488 7.8657 5.3368 0.19853 0.32267 0.15053 0.768-0.14734 1.0161-0.12413 0.0993-0.24666 0.14746-0.3956 0.14746-0.24826 0.0248-0.51826-0.10093-0.6672-0.34906-0.844-1.3653-3.3789-4.0896-6.9037-4.6853-2.5071-0.422-5.0669 0.2436-7.6485 2.0556-0.422 0.29787-0.49334 0.86734-0.17067 1.2644 0.99293 1.1916 1.8152 2.5381 2.4357 4.0027 0.69507 1.688 1.1869 3.5187 1.4351 5.6783 6.3795 2.2588 23.211 0.996 26.413-9.9756 1.9611-6.7021-1.7375-14.745-7.3227-16.755-0.67013-0.24826-1.3621 0.17374-1.5359 0.8688-0.4964 2.0603-1.4692 3.7017-2.4124 4.7939-0.24827 0.27307-0.24827 0.69507 0 0.99293 0.4468 0.5212 1.1185 1.4877 1.8384 3.1261 0.14893 0.34746 0.0217 0.81906-0.32587 0.9928-0.0992 0.0497-0.17213 0.0699-0.27147 0.0699-0.32266 0.0248-0.62053-0.1676-0.74466-0.46546 0-0.0248-0.57094-1.5141-1.7376-2.8545-1.5141-1.7128-3.3013-2.3831-5.3368-1.9859-0.4468 0.0745-0.8688-0.24974-0.8688-0.72134 0-0.3724 0.27306-0.67186 0.62053-0.72146 2.1596-0.422 3.8723 0.27306 4.7163 0.74466 0.3724 0.19867 0.844 0.12254 1.1171-0.22493 1.9361-2.2837 4.4432-7.3428 0.8688-12.605-2.234-3.2767-6.8527-5.2439-10.526-5.368-0.29786 0-0.57093 7e-3 -0.8688 0.0311-0.62053 0.0496-1.7577 0.0931-3.2967 0.46546-2.4079 0.57094-3.7219 1.5669-3.7467 1.5669-0.3228 0.24813-0.77573 0.1768-1.024-0.17067-0.22333-0.32267-0.1676-0.80053 0.1552-1.024 0.12413-0.0992 1.7872-1.2861 4.7163-1.9315 0.422-0.0993 0.61426-0.62213 0.34133-0.9696-3.8724-5.4113-17.298-8.2675-23.38-5.4377-0.57094 0.27307-0.8176 0.96653-0.51974 1.5127 0.67027 1.3404 0.96347 2.8793 0.81454 4.3439-0.0248 0.3724-0.3196 0.65014-0.66707 0.67494h-0.12413c-0.3972-0.0496-0.69347-0.40027-0.64387-0.82227 0.0496-0.4964 0.3956-4.0927-2.9555-6.1281-2.0633-1.2488-4.7799-1.8385-7.6717-1.8073zm-3.3899 10.914c2.3611 0.0177 4.6 0.73693 6.6944 2.1643 2.4575 1.6631 4.1205 3.9421 5.0887 5.5308 0.19853 0.32267 0.62213 0.4452 0.9696 0.27147 5.9325-3.2021 12.31-2.5536 17.523 1.8152 0.24826 0.19853 0.61906 0.22187 0.89213 0.0232 0.9432-0.69493 3.4519-2.1052 7.2993-1.1868 0.3972 0.0497 0.64227 0.4468 0.54307 0.8688-0.0993 0.3972-0.49493 0.61907-0.89213 0.51973-2.5816-0.5212-4.6945-0.17213-6.2832 1.0937-1.4893 1.1915-2.4295 3.1711-2.5288 5.3059-0.0248 0.3724-0.2948 0.67334-0.66707 0.69814-0.12413 0-0.24827-1e-3 -0.3724-0.1008-0.27307-0.14894-0.42813-0.4468-0.40333-0.74467 0.0744-1.6632 0.5988-3.2472 1.4428-4.538 0.22333-0.32267 0.15053-0.74467-0.14747-0.9928-7.1737-5.8831-14.178-2.5615-16.934-0.79907-0.3724 0.22347-0.84093 0.1024-1.0395-0.29466-0.59574-1.2164-2.3101-4.2479-5.3136-6.2833-2.9787-2.0105-6.2785-2.4325-9.8283-1.2411-0.39707 0.12413-0.816-0.0993-0.91533-0.49654-0.0992-0.37226 0.12413-0.79266 0.49653-0.892 1.4987-0.49333 2.9583-0.732 4.3749-0.72146zm-11.775 13.846c0.19547-9e-3 0.394 0.0528 0.54294 0.20173 2.7305 2.7305 3.8755 8.044 0.69813 13.877-0.22333 0.422 0.0481 0.94494 0.51973 0.96974 3.8972 0.22333 11.448 1.4909 16.189 7.9199 0.17373 0.22347 0.4716 0.31814 0.74467 0.194 2.8049-1.0673 5.7821-1.4847 8.5871-1.1868 0.32267 0.0248 0.59734-0.22813 0.59734-0.5508 0-1.5639 0.8144-3.818 4.0415-5.0344 0.39707-0.14893 0.82214 0.0761 0.94627 0.4732 0.12413 0.3724-0.1008 0.7664-0.4732 0.91534-3.6985 1.4149-3.0268 4.1205-3.0019 4.2199 0.0496 0.22347 0.22027 0.36934 0.4188 0.41894 2.8297 0.76946 5.1616 2.2588 6.4772 4.2199 0.22333 0.32267 0.17373 0.80054-0.12413 1.0239-0.12414 0.0993-0.24667 0.14747-0.3956 0.14747-0.24827 0.0248-0.49334-0.1024-0.66707-0.32587-2.4823-3.7483-9.6561-5.7789-16.879-2.552-0.32267 0.14893-0.69347 0.0185-0.892-0.27933-5.8333-8.9857-17.872-8.1604-17.997-8.1604l-1.4428-0.0543c-0.17373-0.0993-0.32266-0.27467-0.37226-0.4732-0.57094-2.4327-3.2984-5.7589-7.2451-7.1987-0.3228-0.124-0.5772-0.44213-0.5276-0.8144 0.0745-0.47173 0.54773-0.74626 0.96973-0.59733 1.6879 0.59573 3.4767 1.7392 4.9412 3.0796 0.9184 0.84387 2.0107 2.0835 2.7305 3.6225 0.22333 0.4468 0.844 0.4996 1.1169 0.0776 3.3511-5.4611 2.456-10.429 0.0233-12.861-0.27306-0.27293-0.3196-0.74307-0.0465-1.0161 0.13653-0.16134 0.32427-0.24667 0.51973-0.256zm-10.077 29.896c-1.3404 6.8263 8.2924 12.93 16.111 10.596-0.422 3.2517-3.2812 8.0673-3.2812 8.0673l5.7868 1.1945 11.643-11.698c-6.2553-1.1171-9.4884-3.1013-11.201-4.2432-0.79427-0.546-1.7329-0.79573-2.6761-0.72133-1.4895 0.12413-3.7731 0.20013-6.454-0.14747-2.7801-0.34746-6.3297-1.162-9.9291-3.0485z" fill="#929292"/>
  <path transform="matrix(1.3333 0 0 1.3333 319.47 274.29)" d="m0.38545-2.1094v2.1094h10.242v-2.25h-6.6797l6.5039-7.7812v-2.1094h-9.5508v2.25h6z" clip-path="url(#clipPath69)" fill="#929292" aria-label="Z"/>
  <path transform="matrix(1.3333 0 0 1.3333 335.31 262.29)" d="m0.38593-2.1094v2.1094h10.242v-2.25h-6.6797l6.5039-7.7812v-2.1094h-9.5508v2.25h6z" clip-path="url(#clipPath71)" fill="#929292" aria-label="Z"/>
  <path transform="matrix(1.3333 0 0 1.3333 222.82 339.44)" d="m0 5.5527 4.4829-0.11035 4.894-5.4424 2.5835 8.8005 3.958-6.5245 3.4795 5.7715 2.0195-1.4551 2.2109-1.9873 10.137 0.24121 4.8174-4.71 2.3926 8.3867 3.5762-5.0508 2.4951 3.5889 2.4688-1.7236 10.354 0.17285 3.3477-5.3926 3.2588 8.916 3.9434-5.4287 2.4766 5.7275 3.3818-3.6094 5.0635 0.17676" clip-path="url(#clipPath73)" fill="none" stroke="#000"/>
  <path transform="matrix(1.3333 0 0 1.3333 229.93 356.9)" d="m0 5.038 3.3805-0.10012 3.6905-4.9379 1.9482 7.9847 2.9847-5.9197 2.6238 5.2365 1.5229-1.3202 1.6672-1.8031 7.644 0.21885 3.6327-4.2734 1.8042 7.6093 2.6967-4.5826 1.8815 3.2562 1.8616-1.5639 7.8082 0.15683 2.5244-4.8927 2.4574 8.0895 2.9736-4.9255 1.8675 5.1966 2.5502-3.2748 3.8183 0.16037" clip-path="url(#clipPath75)" fill="none" stroke="#000"/>
  <path transform="matrix(1.3333 0 0 1.3333 19.696 29.759)" d="m11.706-1.6183 0.31641 1.6172h2.0039v-7.7227h-6v2.3438h3.1523c-0.09375 1.002-0.42773 1.7666-0.99609 2.2969-0.5625 0.52441-1.3652 0.78516-2.4023 0.78516-0.70312 0-1.3066-0.13477-1.8047-0.41016-0.49219-0.27246-0.89062-0.63574-1.1953-1.0898-0.30469-0.45117-0.52734-0.96094-0.66797-1.5234-0.14062-0.56836-0.21094-1.1543-0.21094-1.7578 0-0.63281 0.070312-1.2422 0.21094-1.8281 0.14062-0.58594 0.36328-1.1074 0.66797-1.5703 0.30469-0.45996 0.70312-0.82324 1.1953-1.0898 0.49805-0.27246 1.1016-0.41016 1.8047-0.41016 0.75586 0 1.4004 0.19922 1.9336 0.59766 0.53906 0.39844 0.90234 0.99609 1.0898 1.793h3c-0.0791-0.81152-0.30176-1.5293-0.66797-2.1562-0.36035-0.62402-0.81738-1.1484-1.3711-1.5703-0.54785-0.42773-1.166-0.75293-1.8516-0.97266-0.68848-0.22559-1.4004-0.33984-2.1328-0.33984-1.0957 0-2.0801 0.19629-2.9531 0.58594-0.87598 0.38379-1.6143 0.91406-2.2148 1.5938-0.59473 0.67969-1.0518 1.4766-1.3711 2.3906-0.32227 0.91406-0.48047 1.9072-0.48047 2.9766 0 1.04 0.1582 2.0098 0.48047 2.9062 0.31934 0.89941 0.77637 1.6846 1.3711 2.3555 0.60059 0.66504 1.3389 1.1895 2.2148 1.5703 0.87305 0.37207 1.8574 0.5625 2.9531 0.5625 0.69434 0 1.3828-0.14355 2.0625-0.42188 0.67969-0.28711 1.3008-0.79102 1.8633-1.5117zm4.5527-8.7305v10.348h2.8477v-4.6641c0-0.45996 0.04101-0.89062 0.12891-1.2891 0.09375-0.4043 0.24902-0.75586 0.46875-1.0547 0.22559-0.30469 0.51856-0.54199 0.87891-0.71484 0.35742-0.16992 0.7998-0.25781 1.3242-0.25781 0.16992 0 0.35156 0.011719 0.53906 0.035156 0.1875 0.017578 0.3457 0.035156 0.48047 0.058594v-2.6367c-0.22852-0.06152-0.43359-0.09375-0.62109-0.09375-0.36035 0-0.70898 0.05566-1.043 0.16406-0.33691 0.10254-0.65332 0.25195-0.94922 0.44531-0.29004 0.1875-0.54785 0.41895-0.77344 0.69141-0.22852 0.27539-0.40723 0.57129-0.53906 0.89062h-0.035156v-1.9219zm9.9375 5.1914c0-0.41309 0.03809-0.82031 0.11719-1.2188 0.08496-0.4043 0.22266-0.76172 0.41016-1.0664 0.19336-0.30469 0.45117-0.55371 0.77344-0.75 0.31934-0.19336 0.7207-0.29297 1.207-0.29297 0.47461 0 0.87891 0.099609 1.207 0.29297 0.32812 0.19629 0.58594 0.44531 0.77344 0.75 0.19336 0.30469 0.33105 0.66211 0.41016 1.0664 0.08496 0.39844 0.12891 0.80566 0.12891 1.2188 0 0.41602-0.04394 0.81738-0.12891 1.207-0.0791 0.39258-0.2168 0.74414-0.41016 1.0547-0.1875 0.31348-0.44531 0.5625-0.77344 0.75s-0.73242 0.28125-1.207 0.28125c-0.48633 0-0.8877-0.09375-1.207-0.28125-0.32227-0.1875-0.58008-0.43652-0.77344-0.75-0.1875-0.31055-0.3252-0.66211-0.41016-1.0547-0.0791-0.38965-0.11719-0.79102-0.11719-1.207zm-2.8359 0c0 0.82031 0.12305 1.5674 0.375 2.2383 0.25781 0.66504 0.61523 1.2363 1.0781 1.7109 0.46875 0.46875 1.0312 0.83203 1.6875 1.0898 0.65625 0.24902 1.3887 0.375 2.2031 0.375 0.81152 0 1.5469-0.12598 2.2031-0.375 0.66211-0.25781 1.2246-0.62109 1.6875-1.0898 0.46875-0.47461 0.82617-1.0459 1.0781-1.7109 0.25781-0.6709 0.38672-1.418 0.38672-2.2383 0-0.82617-0.12891-1.5762-0.38672-2.25-0.25195-0.67969-0.60938-1.2539-1.0781-1.7227-0.46289-0.47461-1.0254-0.84375-1.6875-1.1016-0.65625-0.25781-1.3916-0.38672-2.2031-0.38672-0.81445 0-1.5469 0.12891-2.2031 0.38672-0.65625 0.25781-1.2188 0.62695-1.6875 1.1016-0.46289 0.46875-0.82031 1.043-1.0781 1.7227-0.25195 0.67383-0.375 1.4238-0.375 2.25zm22.239 5.1562v-10.348h-2.8359v5.4258c0 1.0547-0.17578 1.8135-0.52734 2.2734-0.3457 0.46289-0.90234 0.69141-1.6758 0.69141-0.67969 0-1.1543-0.21094-1.418-0.63281-0.2666-0.42188-0.39844-1.0576-0.39844-1.9102v-5.8477h-2.8477v6.3633c0 0.6416 0.05273 1.2275 0.16406 1.7578 0.11719 0.52441 0.31641 0.96973 0.59766 1.3359 0.28125 0.36914 0.66211 0.65332 1.1484 0.85547 0.49219 0.19336 1.1162 0.29297 1.875 0.29297 0.60059 0 1.1865-0.13477 1.7578-0.39844 0.56836-0.26367 1.0371-0.69727 1.4062-1.3008h0.05859v1.4414zm7.3857-1.8633c-0.4541 0-0.84082-0.09375-1.1602-0.28125-0.32227-0.1875-0.58008-0.42773-0.77344-0.72656-0.19629-0.2959-0.33691-0.64453-0.42188-1.043-0.08789-0.4043-0.12891-0.81445-0.12891-1.2305 0-0.42188 0.03809-0.83203 0.11719-1.2305 0.08496-0.4043 0.22266-0.76172 0.41016-1.0664 0.19336-0.30469 0.44824-0.55371 0.76172-0.75 0.31055-0.19336 0.70312-0.29297 1.1719-0.29297 0.45117 0 0.83496 0.099609 1.1484 0.29297 0.31055 0.19629 0.56543 0.45117 0.76172 0.76172 0.20215 0.31348 0.3457 0.66797 0.43359 1.0664 0.09375 0.39844 0.14062 0.80566 0.14062 1.2188 0 0.41602-0.04395 0.82617-0.12891 1.2305-0.0791 0.39844-0.2168 0.74707-0.41016 1.043-0.1875 0.29883-0.44238 0.53906-0.76172 0.72656-0.31348 0.1875-0.7002 0.28125-1.1602 0.28125zm-5.2266-8.4844v13.969h2.8477v-4.8984h0.03516c0.34277 0.50977 0.78516 0.89063 1.3242 1.1484 0.54492 0.25488 1.1396 0.38672 1.7812 0.38672 0.75586 0 1.418-0.14648 1.9805-0.43359 0.56836-0.2959 1.043-0.69141 1.418-1.1836 0.38086-0.49219 0.66797-1.0576 0.85547-1.6992 0.1875-0.63867 0.28125-1.3066 0.28125-2.0039 0-0.73242-0.09375-1.4355-0.28125-2.1094-0.1875-0.6709-0.47754-1.2598-0.86719-1.7695-0.38379-0.50684-0.86719-0.91406-1.4531-1.2188-0.58594-0.30469-1.2861-0.45703-2.0977-0.45703-0.6416 0-1.2305 0.12598-1.7695 0.375-0.5332 0.25195-0.96973 0.65625-1.3125 1.2187h-0.03516v-1.3242z" clip-path="url(#clipPath77)" aria-label="Group"/>
  <path transform="matrix(1.3333 0 0 1.3333 201.47 397.73)" d="m3.5154-4.7456h-3.0352c-0.017578 0.88477 0.14355 1.6465 0.48047 2.2852 0.33398 0.6416 0.78516 1.1689 1.3477 1.582 0.56836 0.41602 1.2217 0.71484 1.957 0.90234 0.74121 0.19336 1.5059 0.29297 2.2969 0.29297 0.97559 0 1.8311-0.11426 2.5664-0.33984 0.74121-0.22559 1.3623-0.54199 1.8633-0.94922 0.49805-0.4043 0.87305-0.88477 1.125-1.4414 0.25781-0.5625 0.38672-1.1719 0.38672-1.8281 0-0.79688-0.17285-1.4531-0.51562-1.9688-0.33691-0.51562-0.73828-0.92578-1.207-1.2305s-0.94336-0.52734-1.418-0.66797c-0.46875-0.14062-0.83789-0.2373-1.1016-0.29297-0.89062-0.22559-1.6143-0.41309-2.168-0.5625-0.55664-0.14648-0.99023-0.29297-1.3008-0.43359-0.31348-0.14648-0.52441-0.30762-0.63281-0.48047-0.11133-0.16992-0.16406-0.39844-0.16406-0.67969 0-0.31055 0.064453-0.56543 0.19922-0.76172 0.14062-0.20215 0.31055-0.36914 0.51562-0.50391 0.20215-0.13184 0.42773-0.22559 0.67969-0.28125 0.25781-0.05274 0.51562-0.08203 0.77344-0.08203 0.38086 0 0.73828 0.03516 1.0664 0.10547 0.32812 0.07031 0.61523 0.18457 0.86719 0.33984 0.25781 0.1582 0.45996 0.375 0.60938 0.65625 0.15527 0.28125 0.24609 0.63867 0.26953 1.0664h3.0469c0-0.82617-0.1582-1.5293-0.46875-2.1094-0.31348-0.58594-0.73828-1.0605-1.2773-1.4297-0.5332-0.375-1.1426-0.64453-1.8281-0.80859-0.68848-0.16992-1.4033-0.25781-2.1445-0.25781-0.6416 0-1.2832 0.09082-1.9219 0.26953-0.6416 0.17285-1.2158 0.43945-1.7227 0.79688-0.50977 0.36035-0.91992 0.80859-1.2305 1.3477-0.31348 0.53906-0.46875 1.1777-0.46875 1.9102 0 0.65625 0.12012 1.2158 0.36328 1.6758 0.24902 0.4541 0.57422 0.83789 0.97266 1.1484 0.4043 0.30469 0.8584 0.55664 1.3594 0.75 0.50684 0.1875 1.0312 0.34863 1.5703 0.48047 0.51562 0.14941 1.0254 0.28711 1.5352 0.41016 0.50684 0.11719 0.96094 0.25781 1.3594 0.42188 0.39844 0.1582 0.71777 0.35742 0.96094 0.59766 0.24902 0.23438 0.375 0.54785 0.375 0.9375 0 0.36035-0.09375 0.65625-0.28125 0.89062-0.18164 0.23438-0.41016 0.41895-0.69141 0.55078-0.28125 0.13477-0.58301 0.22266-0.90234 0.26953-0.32227 0.046875-0.62109 0.070312-0.90234 0.070312-0.41602 0-0.81738-0.049805-1.207-0.15234-0.38379-0.09961-0.7207-0.25195-1.0078-0.45703-0.28125-0.21094-0.5127-0.48047-0.69141-0.80859-0.17285-0.33398-0.25781-0.74414-0.25781-1.2305zm10.626-9.5391v14.285h2.8359v-14.285zm7.5967 9.1289c0-0.41309 0.03809-0.82031 0.11719-1.2188 0.08496-0.4043 0.22266-0.76172 0.41016-1.0664 0.19336-0.30469 0.45117-0.55371 0.77344-0.75 0.31934-0.19336 0.7207-0.29297 1.207-0.29297 0.47461 0 0.87891 0.099609 1.207 0.29297 0.32812 0.19629 0.58594 0.44531 0.77344 0.75 0.19336 0.30469 0.33106 0.66211 0.41016 1.0664 0.08496 0.39844 0.12891 0.80566 0.12891 1.2188 0 0.41602-0.04395 0.81738-0.12891 1.207-0.0791 0.39258-0.2168 0.74414-0.41016 1.0547-0.1875 0.31348-0.44531 0.5625-0.77344 0.75s-0.73242 0.28125-1.207 0.28125c-0.48633 0-0.8877-0.09375-1.207-0.28125-0.32227-0.1875-0.58008-0.43652-0.77344-0.75-0.1875-0.31055-0.3252-0.66211-0.41016-1.0547-0.0791-0.38965-0.11719-0.79102-0.11719-1.207zm-2.8359 0c0 0.82031 0.12305 1.5674 0.375 2.2383 0.25781 0.66504 0.61524 1.2363 1.0781 1.7109 0.46875 0.46875 1.0312 0.83203 1.6875 1.0898 0.65625 0.24902 1.3887 0.375 2.2031 0.375 0.81152 0 1.5469-0.12598 2.2031-0.375 0.66211-0.25781 1.2246-0.62109 1.6875-1.0898 0.46875-0.47461 0.82617-1.0459 1.0781-1.7109 0.25781-0.6709 0.38672-1.418 0.38672-2.2383 0-0.82617-0.12891-1.5762-0.38672-2.25-0.25195-0.67969-0.60938-1.2539-1.0781-1.7227-0.46289-0.47461-1.0254-0.84375-1.6875-1.1016-0.65625-0.25781-1.3916-0.38672-2.2031-0.38672-0.81445 0-1.5469 0.12891-2.2031 0.38672-0.65625 0.25781-1.2188 0.62695-1.6875 1.1016-0.46289 0.46875-0.82031 1.043-1.0781 1.7227-0.25195 0.67383-0.375 1.4238-0.375 2.25zm24.36 5.1562 3.2578-10.348h-2.918l-1.8984 7.0078h-0.04687l-1.7578-7.0078h-2.7539l-1.7227 7.0313h-0.04687l-1.8984-7.0313h-3l3.2812 10.348h2.9414l1.7578-6.9375h0.04687l1.8398 6.9375z" clip-path="url(#clipPath79)" aria-label="Slow"/>
  <path transform="matrix(1.3333 0 0 1.3333 271.07 397.73)" d="m14.989 4.5156e-4 3.832-14.285h-3.082l-2.332 9.8438h-0.04687l-2.4375-9.8438h-2.9414l-2.4844 9.7266h-0.035156l-2.2617-9.7266h-3.1406l3.7852 14.285h3.1758l2.3789-9.7266h0.046875l2.4141 9.7266zm4.1104-7.1602c0.03809-0.66211 0.20215-1.2129 0.49219-1.6523 0.2959-0.44531 0.6709-0.7998 1.125-1.0664 0.45117-0.26367 0.96094-0.45117 1.5234-0.5625 0.56836-0.11719 1.1426-0.17578 1.7227-0.17578 0.51562 0 1.0371 0.03516 1.5703 0.10547 0.53906 0.07031 1.0254 0.2168 1.4648 0.43359 0.44531 0.21094 0.80273 0.50977 1.0781 0.89062 0.28125 0.375 0.42188 0.87891 0.42188 1.5117v5.3789c0 0.46289 0.02637 0.9082 0.08203 1.3359 0.05273 0.43066 0.14648 0.75 0.28125 0.96094h-2.8828c-0.055665-0.15527-0.09961-0.31641-0.12891-0.48047-0.03223-0.16992-0.05566-0.34277-0.07031-0.51562-0.4541 0.46289-0.99024 0.78516-1.6055 0.97266-0.60938 0.1875-1.2363 0.28125-1.875 0.28125-0.49219 0-0.95508-0.064453-1.3828-0.1875-0.42188-0.11426-0.79395-0.29883-1.1133-0.55078-0.32226-0.24902-0.57129-0.56543-0.75-0.94922-0.18164-0.38965-0.26953-0.85547-0.26953-1.3945 0-0.58594 0.09961-1.0664 0.30469-1.4414 0.21094-0.38086 0.47461-0.68555 0.79688-0.91406 0.32812-0.22559 0.70312-0.39258 1.125-0.50391 0.42188-0.11719 0.84375-0.20508 1.2656-0.26953 0.42773-0.070312 0.84961-0.12305 1.2656-0.16406 0.41308-0.038086 0.7793-0.09668 1.1016-0.17578 0.31934-0.084961 0.57422-0.20215 0.76172-0.35156 0.1875-0.15527 0.27246-0.38086 0.25781-0.67969 0-0.30469-0.05273-0.54492-0.15234-0.72656-0.10254-0.17871-0.23438-0.31934-0.39844-0.42188-0.16406-0.099609-0.36035-0.16699-0.58594-0.19922-0.21973-0.029297-0.4541-0.046875-0.70312-0.046875-0.5625 0-1.0049 0.12305-1.3242 0.36328-0.32227 0.23438-0.50977 0.63281-0.5625 1.1953zm6.5625 2.0977c-0.12598 0.11133-0.27832 0.19629-0.45703 0.25781-0.18164 0.055664-0.375 0.10254-0.58594 0.14062-0.20508 0.041016-0.41895 0.076172-0.64453 0.10547-0.22852 0.023437-0.4541 0.055664-0.67969 0.09375-0.21094 0.041016-0.42188 0.09375-0.63281 0.16406-0.20508 0.070312-0.38379 0.16406-0.53906 0.28125-0.14941 0.11133-0.26953 0.25195-0.36328 0.42188-0.09375 0.17285-0.14062 0.39258-0.14062 0.65625 0 0.25781 0.04687 0.47461 0.14062 0.64453 0.09375 0.17285 0.2168 0.31055 0.375 0.41016 0.16406 0.09375 0.35156 0.16406 0.5625 0.21094 0.2168 0.041016 0.43945 0.058594 0.66797 0.058594 0.55371 0 0.98438-0.09375 1.2891-0.28125 0.31055-0.1875 0.53906-0.41016 0.67969-0.66797 0.14648-0.26367 0.2373-0.53027 0.26953-0.79688 0.03809-0.26367 0.05859-0.47461 0.05859-0.63281zm10.755 5.0625 3.5039-10.348h-2.8242l-2.1797 7.0664h-0.03516l-2.1797-7.0664h-2.9766l3.5391 10.348zm11.643-6.2812h-4.6172c0.01465-0.20215 0.05859-0.42773 0.12891-0.67969 0.07031-0.24902 0.19336-0.48633 0.375-0.71484 0.17871-0.23438 0.41602-0.4248 0.71484-0.57422 0.30469-0.15527 0.68262-0.23438 1.1367-0.23438 0.69434 0 1.21 0.1875 1.5469 0.5625 0.34277 0.375 0.58008 0.92285 0.71484 1.6406zm-4.6172 1.8047h7.4648c0.04687-0.80273-0.02344-1.5732-0.21094-2.3086-0.18164-0.73242-0.48047-1.3857-0.90234-1.957-0.42188-0.56836-0.96094-1.0225-1.6172-1.3594-0.65039-0.34277-1.415-0.51562-2.2969-0.51562-0.79102 0-1.5088 0.14062-2.1562 0.42188-0.6416 0.27539-1.1953 0.65625-1.6641 1.1484-0.46875 0.48633-0.8291 1.0635-1.0781 1.7344-0.25195 0.66504-0.375 1.3828-0.375 2.1562 0 0.79688 0.12012 1.5322 0.36328 2.2031 0.24902 0.66504 0.60059 1.2393 1.0547 1.7227 0.45117 0.47754 1.002 0.84375 1.6523 1.1016 0.65625 0.25488 1.3887 0.38672 2.2031 0.38672 1.1719 0 2.1709-0.26367 3-0.79688 0.82617-0.53027 1.4414-1.418 1.8398-2.6602h-2.4961c-0.09375 0.32227-0.34863 0.62695-0.76172 0.91406-0.41602 0.28125-0.9082 0.42188-1.4766 0.42188-0.80566 0-1.4238-0.20508-1.8516-0.62109-0.42188-0.41309-0.65332-1.0781-0.69141-1.9922zm11.338 1.1133h-2.6953c0.02344 0.69727 0.17578 1.2744 0.45703 1.7344 0.28711 0.46289 0.65625 0.83203 1.1016 1.1133 0.45117 0.27539 0.96387 0.47168 1.5352 0.58594 0.56836 0.12305 1.1543 0.1875 1.7578 0.1875 0.58594 0 1.1631-0.058594 1.7344-0.17578 0.56836-0.1084 1.0723-0.30469 1.5117-0.58594 0.43652-0.28125 0.79102-0.64746 1.0664-1.1016 0.27246-0.45996 0.41016-1.0312 0.41016-1.7109 0-0.4834-0.09375-0.88477-0.28125-1.207-0.1875-0.32812-0.43359-0.60059-0.73828-0.82031-0.30469-0.22559-0.65625-0.4043-1.0547-0.53906-0.39258-0.13184-0.79394-0.24609-1.207-0.33984-0.39844-0.09375-0.79395-0.17871-1.1836-0.25781-0.38379-0.076172-0.72656-0.16699-1.0312-0.26953-0.29883-0.099609-0.53906-0.22852-0.72656-0.38672-0.1875-0.16406-0.28125-0.36914-0.28125-0.62109 0-0.2168 0.05273-0.38965 0.16406-0.51562 0.1084-0.12305 0.2373-0.2168 0.38672-0.28125 0.15527-0.070312 0.32812-0.11133 0.51562-0.12891 0.1875-0.023437 0.35742-0.035156 0.51562-0.035156 0.50684 0 0.94922 0.099609 1.3242 0.29297 0.375 0.1875 0.58008 0.55664 0.62109 1.1016h2.6953c-0.05566-0.63867-0.21973-1.166-0.49219-1.582-0.27539-0.42188-0.61816-0.75586-1.0312-1.0078-0.40723-0.25781-0.87598-0.43652-1.4062-0.53906-0.52441-0.1084-1.0664-0.16406-1.6289-0.16406s-1.1104 0.05273-1.6406 0.15234c-0.5332 0.09375-1.0137 0.2666-1.4414 0.51562-0.42188 0.24316-0.76758 0.58008-1.0312 1.0078-0.25781 0.43066-0.38672 0.97852-0.38672 1.6406 0 0.4541 0.09375 0.83789 0.28125 1.1484 0.1875 0.31348 0.43359 0.57422 0.73828 0.78516 0.30469 0.20508 0.65039 0.37207 1.043 0.50391 0.39844 0.12598 0.80273 0.23438 1.2188 0.32812 1.0137 0.21094 1.8047 0.42188 2.3672 0.63281 0.56836 0.21094 0.85547 0.5332 0.85547 0.96094 0 0.25781-0.06445 0.46875-0.1875 0.63281-0.11719 0.16406-0.2666 0.29883-0.44531 0.39844-0.18164 0.10254-0.38086 0.17578-0.59766 0.22266-0.21973 0.046875-0.43066 0.070312-0.63281 0.070312-0.28125 0-0.55078-0.029297-0.80859-0.09375-0.25781-0.070312-0.48926-0.17578-0.69141-0.31641-0.20508-0.14062-0.36914-0.31934-0.49219-0.53906-0.12598-0.22559-0.1875-0.49219-0.1875-0.79687z" clip-path="url(#clipPath81)" aria-label=" Waves"/>
  <path transform="matrix(1.3333 0 0 1.3333 452.6 29.759)" d="m4.524-7.5597v-4.2891h2.4375c0.35742 0 0.70312 0.0293 1.0312 0.08203 0.33398 0.05566 0.62695 0.16113 0.87891 0.31641 0.25781 0.14941 0.46289 0.36328 0.62109 0.64453 0.15527 0.28125 0.23438 0.65039 0.23438 1.1016 0 0.4541-0.079102 0.82031-0.23438 1.1016-0.1582 0.28125-0.36328 0.50098-0.62109 0.65625-0.25195 0.14941-0.54492 0.25195-0.87891 0.30469-0.32812 0.055664-0.67383 0.082031-1.0312 0.082031zm-3.1406-6.7266v14.285h3.1406v-5.1211h3.293c0.89648 0 1.6582-0.12891 2.2852-0.38672 0.62402-0.26367 1.1309-0.60938 1.5234-1.0312 0.39844-0.42773 0.68555-0.91699 0.86719-1.4648 0.17871-0.55371 0.26953-1.1191 0.26953-1.6992 0-0.58594-0.09082-1.1514-0.26953-1.6992-0.18164-0.54492-0.46875-1.0312-0.86719-1.4531-0.39258-0.42774-0.89941-0.77344-1.5234-1.0312-0.62695-0.26367-1.3887-0.39844-2.2852-0.39844zm19.995 8.0039h-4.6172c0.01465-0.20215 0.05859-0.42773 0.12891-0.67969 0.07031-0.24902 0.19336-0.48633 0.375-0.71484 0.17871-0.23438 0.41602-0.4248 0.71484-0.57422 0.30469-0.15527 0.68262-0.23438 1.1367-0.23438 0.69434 0 1.21 0.1875 1.5469 0.5625 0.34277 0.375 0.58008 0.92285 0.71484 1.6406zm-4.6172 1.8047h7.4648c0.04687-0.80273-0.02344-1.5732-0.21094-2.3086-0.18164-0.73242-0.48047-1.3857-0.90234-1.957-0.42188-0.56836-0.96094-1.0225-1.6172-1.3594-0.65039-0.34277-1.415-0.51562-2.2969-0.51562-0.79102 0-1.5088 0.14062-2.1562 0.42188-0.6416 0.27539-1.1953 0.65625-1.6641 1.1484-0.46875 0.48633-0.8291 1.0635-1.0781 1.7344-0.25195 0.66504-0.375 1.3828-0.375 2.1562 0 0.79688 0.12012 1.5322 0.36328 2.2031 0.24902 0.66504 0.60058 1.2393 1.0547 1.7227 0.45117 0.47754 1.002 0.84375 1.6523 1.1016 0.65625 0.25488 1.3887 0.38672 2.2031 0.38672 1.1719 0 2.1709-0.26367 3-0.79688 0.82617-0.53027 1.4414-1.418 1.8398-2.6602h-2.4961c-0.09375 0.32227-0.34863 0.62695-0.76172 0.91406-0.41602 0.28125-0.9082 0.42188-1.4766 0.42188-0.80566 0-1.4238-0.20508-1.8516-0.62109-0.42188-0.41309-0.65332-1.0781-0.69141-1.9922zm9.1377-5.8711v10.348h2.8477v-4.6641c0-0.45996 0.04102-0.89062 0.12891-1.2891 0.09375-0.4043 0.24902-0.75586 0.46875-1.0547 0.22559-0.30469 0.51855-0.54199 0.87891-0.71484 0.35742-0.16992 0.7998-0.25781 1.3242-0.25781 0.16992 0 0.35156 0.011719 0.53906 0.035156 0.1875 0.017578 0.3457 0.035156 0.48047 0.058594v-2.6367c-0.22852-0.06152-0.43359-0.09375-0.62109-0.09375-0.36035 0-0.70898 0.05566-1.043 0.16406-0.33691 0.10254-0.65332 0.25195-0.94922 0.44531-0.29004 0.1875-0.54785 0.41895-0.77344 0.69141-0.22852 0.27539-0.40723 0.57129-0.53906 0.89062h-0.03516v-1.9219zm8.3994 1.9102v8.4375h2.8359v-8.4375h1.9688v-1.9102h-1.9688v-0.60938c0-0.42773 0.08203-0.73242 0.24609-0.91406 0.16992-0.17871 0.45117-0.26953 0.84375-0.26953 0.35742 0 0.70312 0.02051 1.0312 0.05859v-2.1211c-0.23438-0.01465-0.48047-0.0293-0.73828-0.04687-0.25195-0.02344-0.50391-0.03516-0.76172-0.03516-1.1572 0-2.0244 0.29297-2.6016 0.87891-0.57129 0.58594-0.85547 1.3418-0.85547 2.2617v0.79688h-1.6992v1.9102zm8.5605 3.2812c0-0.41309 0.03809-0.82031 0.11719-1.2188 0.08496-0.4043 0.22266-0.76172 0.41016-1.0664 0.19336-0.30469 0.45117-0.55371 0.77344-0.75 0.31934-0.19336 0.7207-0.29297 1.207-0.29297 0.47461 0 0.87891 0.099609 1.207 0.29297 0.32812 0.19629 0.58594 0.44531 0.77344 0.75 0.19336 0.30469 0.33106 0.66211 0.41016 1.0664 0.08496 0.39844 0.12891 0.80566 0.12891 1.2188 0 0.41602-0.04395 0.81738-0.12891 1.207-0.0791 0.39258-0.2168 0.74414-0.41016 1.0547-0.1875 0.31348-0.44531 0.5625-0.77344 0.75s-0.73242 0.28125-1.207 0.28125c-0.48633 0-0.8877-0.09375-1.207-0.28125-0.32226-0.1875-0.58008-0.43652-0.77344-0.75-0.1875-0.31055-0.3252-0.66211-0.41016-1.0547-0.0791-0.38965-0.11719-0.79102-0.11719-1.207zm-2.8359 0c0 0.82031 0.12305 1.5674 0.375 2.2383 0.25781 0.66504 0.61523 1.2363 1.0781 1.7109 0.46875 0.46875 1.0312 0.83203 1.6875 1.0898 0.65625 0.24902 1.3887 0.375 2.2031 0.375 0.81152 0 1.5469-0.12598 2.2031-0.375 0.66211-0.25781 1.2246-0.62109 1.6875-1.0898 0.46875-0.47461 0.82617-1.0459 1.0781-1.7109 0.25781-0.6709 0.38672-1.418 0.38672-2.2383 0-0.82617-0.12891-1.5762-0.38672-2.25-0.25195-0.67969-0.60938-1.2539-1.0781-1.7227-0.46289-0.47461-1.0254-0.84375-1.6875-1.1016-0.65625-0.25781-1.3916-0.38672-2.2031-0.38672-0.81445 0-1.5469 0.12891-2.2031 0.38672-0.65625 0.25781-1.2188 0.62695-1.6875 1.1016-0.46289 0.46875-0.82031 1.043-1.0781 1.7227-0.25195 0.67383-0.375 1.4238-0.375 2.25zm12.536-5.1914v10.348h2.8477v-4.6641c0-0.45996 0.04102-0.89062 0.12891-1.2891 0.09375-0.4043 0.24902-0.75586 0.46875-1.0547 0.22559-0.30469 0.51856-0.54199 0.87891-0.71484 0.35742-0.16992 0.7998-0.25781 1.3242-0.25781 0.16992 0 0.35156 0.011719 0.53906 0.035156 0.1875 0.017578 0.3457 0.035156 0.48047 0.058594v-2.6367c-0.22852-0.06152-0.43359-0.09375-0.62109-0.09375-0.36035 0-0.70898 0.05566-1.043 0.16406-0.33691 0.10254-0.65332 0.25195-0.94922 0.44531-0.29004 0.1875-0.54785 0.41895-0.77344 0.69141-0.22852 0.27539-0.40723 0.57129-0.53906 0.89062h-0.03516v-1.9219zm7.8604 0v10.348h2.8359v-6c0-0.50684 0.07324-0.91699 0.22266-1.2305 0.14648-0.31055 0.32226-0.55078 0.52734-0.71484 0.21094-0.16992 0.4248-0.28418 0.64453-0.33984 0.2168-0.061523 0.39258-0.09375 0.52734-0.09375 0.45117 0 0.79688 0.079102 1.0312 0.23438 0.23438 0.14941 0.40137 0.35156 0.50391 0.60938 0.09961 0.25195 0.15527 0.52734 0.16406 0.83203 0.01465 0.29883 0.02344 0.59766 0.02344 0.90234v5.8008h2.8359v-5.7656c0-0.31934 0.02344-0.63574 0.07031-0.94922 0.04687-0.31055 0.14062-0.58887 0.28125-0.83203 0.14062-0.24902 0.33105-0.44824 0.57422-0.59766 0.24902-0.15527 0.57715-0.23438 0.98438-0.23438 0.39844 0 0.71484 0.067383 0.94922 0.19922 0.23438 0.13477 0.41016 0.31348 0.52734 0.53906 0.11719 0.22852 0.1875 0.49219 0.21094 0.79688 0.0293 0.30469 0.04687 0.63281 0.04687 0.98438v5.8594h2.8477v-6.9258c0-0.66211-0.09375-1.2305-0.28125-1.6992-0.1875-0.47461-0.45117-0.8584-0.78516-1.1484-0.33691-0.2959-0.73828-0.50977-1.207-0.64453-0.46289-0.13184-0.9668-0.19922-1.5117-0.19922-0.7207 0-1.3447 0.17285-1.875 0.51562-0.52441 0.3457-0.9375 0.74414-1.2422 1.1953-0.28125-0.63867-0.69141-1.084-1.2305-1.3359-0.53906-0.24902-1.1367-0.375-1.793-0.375-0.67969 0-1.2861 0.14941-1.8164 0.44531-0.52441 0.29004-0.97266 0.7002-1.3477 1.2305h-0.03516v-1.4063zm17.921 3.1875c0.03809-0.66211 0.20215-1.2129 0.49219-1.6523 0.2959-0.44531 0.6709-0.7998 1.125-1.0664 0.45117-0.26367 0.96094-0.45117 1.5234-0.5625 0.56836-0.11719 1.1426-0.17578 1.7227-0.17578 0.51562 0 1.0371 0.03516 1.5703 0.10547 0.53906 0.07031 1.0254 0.2168 1.4648 0.43359 0.44531 0.21094 0.80273 0.50977 1.0781 0.89063 0.28125 0.375 0.42188 0.87891 0.42188 1.5117v5.3789c0 0.46289 0.02637 0.9082 0.08203 1.3359 0.05273 0.43066 0.14648 0.75 0.28125 0.96094h-2.8828c-0.05566-0.15527-0.09961-0.31641-0.12891-0.48047-0.03223-0.16992-0.05566-0.34277-0.07031-0.51562-0.4541 0.46289-0.99024 0.78516-1.6055 0.97266-0.60938 0.1875-1.2363 0.28125-1.875 0.28125-0.49219 0-0.95508-0.064453-1.3828-0.1875-0.42188-0.11426-0.79395-0.29883-1.1133-0.55078-0.32226-0.24902-0.57129-0.56543-0.75-0.94922-0.18164-0.38965-0.26953-0.85547-0.26953-1.3945 0-0.58594 0.09961-1.0664 0.30469-1.4414 0.21094-0.38086 0.47461-0.68555 0.79688-0.91406 0.32812-0.22559 0.70312-0.39258 1.125-0.50391 0.42188-0.11719 0.84375-0.20508 1.2656-0.26953 0.42773-0.070312 0.84961-0.12305 1.2656-0.16406 0.41309-0.038086 0.7793-0.09668 1.1016-0.17578 0.31934-0.084961 0.57422-0.20215 0.76172-0.35156 0.1875-0.15527 0.27246-0.38086 0.25781-0.67969 0-0.30469-0.05273-0.54492-0.15234-0.72656-0.10254-0.17871-0.23438-0.31934-0.39844-0.42188-0.16406-0.099609-0.36035-0.16699-0.58594-0.19922-0.21973-0.029297-0.4541-0.046875-0.70312-0.046875-0.5625 0-1.0049 0.12305-1.3242 0.36328-0.32227 0.23438-0.50977 0.63281-0.5625 1.1953zm6.5625 2.0977c-0.12598 0.11133-0.27832 0.19629-0.45703 0.25781-0.18164 0.055664-0.375 0.10254-0.58594 0.14062-0.20508 0.041016-0.41895 0.076172-0.64453 0.10547-0.22852 0.023437-0.4541 0.055664-0.67969 0.09375-0.21094 0.041016-0.42188 0.09375-0.63281 0.16406-0.20508 0.070312-0.38379 0.16406-0.53906 0.28125-0.14941 0.11133-0.26953 0.25195-0.36328 0.42188-0.09375 0.17285-0.14062 0.39258-0.14062 0.65625 0 0.25781 0.04687 0.47461 0.14062 0.64453 0.09375 0.17285 0.2168 0.31055 0.375 0.41016 0.16406 0.09375 0.35156 0.16406 0.5625 0.21094 0.2168 0.041016 0.43945 0.058594 0.66797 0.058594 0.55371 0 0.98438-0.09375 1.2891-0.28125 0.31055-0.1875 0.53906-0.41016 0.67969-0.66797 0.14648-0.26367 0.2373-0.53027 0.26953-0.79688 0.03809-0.26367 0.05859-0.47461 0.05859-0.63281zm5.0361-5.2852v10.348h2.8477v-5.4258c0-1.0459 0.16992-1.7988 0.51562-2.2617 0.34277-0.45996 0.90234-0.69141 1.6758-0.69141 0.67969 0 1.1514 0.21094 1.418 0.63281 0.27246 0.41602 0.41016 1.0518 0.41016 1.9102v5.8359h2.8359v-6.3633c0-0.63867-0.05859-1.2217-0.17578-1.7461-0.11133-0.53027-0.30469-0.97852-0.58594-1.3477-0.28125-0.36621-0.66504-0.65039-1.1484-0.85547-0.48633-0.20215-1.1104-0.30469-1.875-0.30469-0.59473 0-1.1807 0.1377-1.7578 0.41016-0.57129 0.27539-1.0371 0.70898-1.3945 1.3008h-0.05859v-1.4414zm18.902 3.6445h2.7773c-0.041-0.66211-0.19921-1.2363-0.48046-1.7227-0.27539-0.49219-0.63868-0.89648-1.0898-1.2188-0.44531-0.32812-0.95508-0.56836-1.5234-0.72656-0.5625-0.16406-1.1484-0.24609-1.7578-0.24609-0.84375 0-1.5938 0.14062-2.25 0.42188-0.65039 0.27539-1.2012 0.66211-1.6523 1.1602-0.4541 0.50098-0.79688 1.0957-1.0312 1.7812-0.23438 0.68848-0.35156 1.4355-0.35156 2.2383 0 0.77344 0.12304 1.4854 0.375 2.1328 0.25781 0.6416 0.6123 1.1953 1.0664 1.6641 0.45117 0.46875 0.99903 0.83203 1.6406 1.0898 0.64746 0.25488 1.3594 0.38672 2.1328 0.38672 1.374 0 2.502-0.35742 3.3867-1.0781 0.88183-0.71777 1.4121-1.7637 1.5938-3.1406h-2.7305c-0.0937 0.6416-0.3252 1.1543-0.69141 1.5352-0.36914 0.375-0.89062 0.5625-1.5703 0.5625-0.44531 0-0.82031-0.09668-1.125-0.29297-0.30469-0.20215-0.54785-0.45996-0.72656-0.77344-0.18164-0.31055-0.31348-0.65918-0.39844-1.043-0.0791-0.38965-0.11719-0.77344-0.11719-1.1484 0-0.38086 0.0381-0.76758 0.11719-1.1602 0.085-0.39844 0.22266-0.76172 0.41016-1.0898 0.19336-0.32812 0.44531-0.5918 0.75-0.79688 0.31054-0.21094 0.69433-0.31641 1.1484-0.31641 1.21 0 1.9102 0.59473 2.0977 1.7812zm11.396 0.42188h-4.6172c0.0147-0.20215 0.0586-0.42773 0.1289-0.67969 0.0703-0.24902 0.19336-0.48633 0.375-0.71484 0.17871-0.23438 0.41602-0.4248 0.71485-0.57422 0.30469-0.15527 0.68261-0.23438 1.1367-0.23438 0.69433 0 1.21 0.1875 1.5469 0.5625 0.34277 0.375 0.58008 0.92285 0.71485 1.6406zm-4.6172 1.8047h7.4648c0.0469-0.80273-0.0234-1.5732-0.21094-2.3086-0.18164-0.73242-0.48046-1.3857-0.90234-1.957-0.42187-0.56836-0.96094-1.0225-1.6172-1.3594-0.65039-0.34277-1.415-0.51562-2.2969-0.51562-0.79102 0-1.5088 0.14062-2.1562 0.42188-0.6416 0.27539-1.1953 0.65625-1.6641 1.1484-0.46875 0.48633-0.82911 1.0635-1.0781 1.7344-0.25195 0.66504-0.375 1.3828-0.375 2.1562 0 0.79688 0.12012 1.5322 0.36328 2.2031 0.24902 0.66504 0.60059 1.2393 1.0547 1.7227 0.45117 0.47754 1.002 0.84375 1.6523 1.1016 0.65625 0.25488 1.3887 0.38672 2.2031 0.38672 1.1719 0 2.1709-0.26367 3-0.79688 0.82617-0.53027 1.4414-1.418 1.8398-2.6602h-2.4961c-0.0937 0.32227-0.34864 0.62695-0.76172 0.91406-0.41602 0.28125-0.9082 0.42188-1.4766 0.42188-0.80567 0-1.4238-0.20508-1.8516-0.62109-0.42187-0.41309-0.65332-1.0781-0.6914-1.9922z" clip-path="url(#clipPath83)" aria-label="Performance"/>
 </g>
</svg>
