<?xml version="1.0" encoding="UTF-8"?>
<!-- Created with Inkscape (http://www.inkscape.org/) -->
<svg width="343.12" height="911.15" version="1.1" viewBox="0 0 343.12 911.15" xmlns="http://www.w3.org/2000/svg" xmlns:xlink="http://www.w3.org/1999/xlink">
 <defs>
  <clipPath id="clipPath5">
   <path transform="matrix(1 0 0 -1 -31.808 544.53)" d="m0 0h595v842h-595z"/>
  </clipPath>
  <clipPath id="clipPath8">
   <path transform="matrix(1 0 0 -1 -25.993 541.02)" d="m0 0h595v842h-595z"/>
  </clipPath>
  <clipPath id="clipPath11">
   <path transform="matrix(.99985 -.017452 -.017452 -.99985 -55.55 547.86)" d="m0 0h595v842h-595z"/>
  </clipPath>
  <clipPath id="clipPath14">
   <path transform="matrix(1 0 0 -1 -3.2518 512.25)" d="m0 0h595v842h-595z"/>
  </clipPath>
  <clipPath id="clipPath17">
   <path transform="matrix(1 0 0 -1 -3.8529 527.44)" d="m0 0h595v842h-595z"/>
  </clipPath>
  <clipPath id="clipPath20">
   <path transform="matrix(1 0 0 -1 -1 524.92)" d="m0 0h595v842h-595z"/>
  </clipPath>
  <clipPath id="clipPath23">
   <path transform="matrix(1 0 0 -1 -1.0211 533.75)" d="m0 0h595v842h-595z"/>
  </clipPath>
  <clipPath id="clipPath26">
   <path transform="matrix(1 0 0 -1 -5.6928 533.4)" d="m0 0h595v842h-595z"/>
  </clipPath>
  <clipPath id="clipPath29">
   <path transform="matrix(1 0 0 -1 -1.5844 524.41)" d="m0 0h595v842h-595z"/>
  </clipPath>
  <clipPath id="clipPath32">
   <path transform="matrix(1 0 0 -1 -5.2562 512.43)" d="m0 0h595v842h-595z"/>
  </clipPath>
  <clipPath id="clipPath35">
   <path transform="matrix(1 0 0 -1 -7.9664 527.4)" d="m0 0h595v842h-595z"/>
  </clipPath>
  <clipPath id="clipPath38">
   <path transform="matrix(1 0 0 -1 -4.2661 539.26)" d="m0 0h595v842h-595z"/>
  </clipPath>
  <clipPath id="clipPath41">
   <path transform="matrix(1 0 0 -1 -1.9957 512.55)" d="m0 0h595v842h-595z"/>
  </clipPath>
  <clipPath id="clipPath44">
   <path transform="matrix(1 0 0 -1 -3.4567 512.52)" d="m0 0h595v842h-595z"/>
  </clipPath>
  <clipPath id="clipPath47">
   <path transform="matrix(1 0 0 -1 -3.8969 512.77)" d="m0 0h595v842h-595z"/>
  </clipPath>
  <clipPath id="clipPath50">
   <path transform="matrix(1 0 0 -1 -134.28 614.2)" d="m0 0h595v842h-595z"/>
  </clipPath>
  <clipPath id="clipPath53">
   <path transform="matrix(1 0 0 -1 -143.25 539.92)" d="m0 0h595v842h-595z"/>
  </clipPath>
  <clipPath id="clipPath56">
   <path transform="matrix(1 0 0 -1 -128.25 522.92)" d="m0 0h595v842h-595z"/>
  </clipPath>
  <clipPath id="clipPath59">
   <path transform="matrix(1 0 0 -1 -31.808 771.34)" d="m0 0h595v842h-595z"/>
  </clipPath>
  <clipPath id="clipPath62">
   <path transform="matrix(1 0 0 -1 -25.993 767.83)" d="m0 0h595v842h-595z"/>
  </clipPath>
  <clipPath id="clipPath65">
   <path transform="matrix(.99985 -.017452 -.017452 -.99985 -51.592 774.63)" d="m0 0h595v842h-595z"/>
  </clipPath>
  <clipPath id="clipPath68">
   <path transform="matrix(1 0 0 -1 -3.2518 739.05)" d="m0 0h595v842h-595z"/>
  </clipPath>
  <clipPath id="clipPath71">
   <path transform="matrix(1 0 0 -1 -3.8529 754.24)" d="m0 0h595v842h-595z"/>
  </clipPath>
  <clipPath id="clipPath74">
   <path transform="matrix(1 0 0 -1 -1 751.73)" d="m0 0h595v842h-595z"/>
  </clipPath>
  <clipPath id="clipPath77">
   <path transform="matrix(1 0 0 -1 -1.0211 760.55)" d="m0 0h595v842h-595z"/>
  </clipPath>
  <clipPath id="clipPath80">
   <path transform="matrix(1 0 0 -1 -5.6928 760.2)" d="m0 0h595v842h-595z"/>
  </clipPath>
  <clipPath id="clipPath83">
   <path transform="matrix(1 0 0 -1 -1.5844 751.21)" d="m0 0h595v842h-595z"/>
  </clipPath>
  <clipPath id="clipPath86">
   <path transform="matrix(1 0 0 -1 -5.2562 739.23)" d="m0 0h595v842h-595z"/>
  </clipPath>
  <clipPath id="clipPath89">
   <path transform="matrix(1 0 0 -1 -7.9664 754.2)" d="m0 0h595v842h-595z"/>
  </clipPath>
  <clipPath id="clipPath92">
   <path transform="matrix(1 0 0 -1 -4.2661 766.06)" d="m0 0h595v842h-595z"/>
  </clipPath>
  <clipPath id="clipPath95">
   <path transform="matrix(1 0 0 -1 -1.9957 739.36)" d="m0 0h595v842h-595z"/>
  </clipPath>
  <clipPath id="clipPath98">
   <path transform="matrix(1 0 0 -1 -3.4567 739.32)" d="m0 0h595v842h-595z"/>
  </clipPath>
  <clipPath id="clipPath101">
   <path transform="matrix(1 0 0 -1 -3.8969 739.57)" d="m0 0h595v842h-595z"/>
  </clipPath>
  <clipPath id="clipPath104">
   <path transform="matrix(1 0 0 -1 -134.28 841)" d="m0 0h595v842h-595z"/>
  </clipPath>
  <clipPath id="clipPath107">
   <path transform="matrix(1 0 0 -1 -143.25 766.73)" d="m0 0h595v842h-595z"/>
  </clipPath>
  <clipPath id="clipPath110">
   <path transform="matrix(1 0 0 -1 -128.25 749.73)" d="m0 0h595v842h-595z"/>
  </clipPath>
  <clipPath id="clipPath112">
   <path transform="matrix(1 0 0 -1 -148.18 793.65)" d="m0 0h595v842h-595z"/>
  </clipPath>
  <clipPath id="clipPath115">
   <path transform="matrix(1 0 0 -1 -31.808 285.53)" d="m0 0h595v842h-595z"/>
  </clipPath>
  <clipPath id="clipPath118">
   <path transform="matrix(1 0 0 -1 -25.993 282.02)" d="m0 0h595v842h-595z"/>
  </clipPath>
  <clipPath id="clipPath121">
   <path transform="matrix(.99985 -.017452 -.017452 -.99985 -60.07 288.9)" d="m0 0h595v842h-595z"/>
  </clipPath>
  <clipPath id="clipPath124">
   <path transform="matrix(1 0 0 -1 -3.2518 253.25)" d="m0 0h595v842h-595z"/>
  </clipPath>
  <clipPath id="clipPath127">
   <path transform="matrix(1 0 0 -1 -3.8529 268.44)" d="m0 0h595v842h-595z"/>
  </clipPath>
  <clipPath id="clipPath130">
   <path transform="matrix(1 0 0 -1 -1 265.92)" d="m0 0h595v842h-595z"/>
  </clipPath>
  <clipPath id="clipPath133">
   <path transform="matrix(1 0 0 -1 -1.0211 274.75)" d="m0 0h595v842h-595z"/>
  </clipPath>
  <clipPath id="clipPath136">
   <path transform="matrix(1 0 0 -1 -5.6928 274.4)" d="m0 0h595v842h-595z"/>
  </clipPath>
  <clipPath id="clipPath139">
   <path transform="matrix(1 0 0 -1 -1.5844 265.41)" d="m0 0h595v842h-595z"/>
  </clipPath>
  <clipPath id="clipPath142">
   <path transform="matrix(1 0 0 -1 -5.2562 253.43)" d="m0 0h595v842h-595z"/>
  </clipPath>
  <clipPath id="clipPath145">
   <path transform="matrix(1 0 0 -1 -7.9664 268.4)" d="m0 0h595v842h-595z"/>
  </clipPath>
  <clipPath id="clipPath148">
   <path transform="matrix(1 0 0 -1 -4.2661 280.26)" d="m0 0h595v842h-595z"/>
  </clipPath>
  <clipPath id="clipPath151">
   <path transform="matrix(1 0 0 -1 -1.9957 253.55)" d="m0 0h595v842h-595z"/>
  </clipPath>
  <clipPath id="clipPath154">
   <path transform="matrix(1 0 0 -1 -3.4567 253.52)" d="m0 0h595v842h-595z"/>
  </clipPath>
  <clipPath id="clipPath157">
   <path transform="matrix(1 0 0 -1 -3.8969 253.77)" d="m0 0h595v842h-595z"/>
  </clipPath>
  <clipPath id="clipPath160">
   <path transform="matrix(1 0 0 -1 -134.28 355.2)" d="m0 0h595v842h-595z"/>
  </clipPath>
  <clipPath id="clipPath163">
   <path transform="matrix(1 0 0 -1 -143.25 280.92)" d="m0 0h595v842h-595z"/>
  </clipPath>
  <clipPath id="clipPath166">
   <path transform="matrix(1 0 0 -1 -128.25 263.92)" d="m0 0h595v842h-595z"/>
  </clipPath>
  <clipPath id="clipPath171">
   <path transform="matrix(1 0 0 -1 -159.75 304.95)" d="m0 0h595v842h-595z"/>
  </clipPath>
 </defs>
 <g transform="translate(-1.3226 2.0266)">
  <path d="m213.26 325.28c2.6037-11.332 11.87-19.665 24.048-22.745 13.398-3.3888 27.552 0.74734 36.231 11.217 4.8001-2.5551 10.024-4.2185 15.417-4.9097 8.8728-1.1371 17.876 0.40014 25.849 4.1611 3.7 1.7452 7.2056 4.0044 9.6215 7.3105 5.5388 7.5796 4.2816 18.15-2.8803 24.22 14.645-8.5425 29.521 10.718 17.554 22.729-1.7457 1.752-4.0693 2.8087-6.5371 2.9729 11.89 8.8665 3.8696 27.726-10.765 25.314-3.4489-0.56853-6.4048-2.7812-7.922-5.9303-1.1147 7.9019-6.1817 14.69-13.441 18.005-12.708 5.8041-27.706 0.05-33.271-12.765-3.0927 4.4056-7.4189 7.7985-12.435 9.7523-8.8349 3.4415-18.909 2.1504-25.989-4.0965-3.8416-3.3897-6.3899-8.006-7.2109-13.063-12.247 7.7001-28.424 3.9239-35.996-8.4027-4.2555-6.9276-4.7716-15.522-1.3756-22.909-10.753-12.861-3.674-32.541 12.808-35.605 5.8764-1.0924 11.923 0.66867 16.293 4.7456z" fill="#fff"/>
  <g>
   <path d="m46.074 91.858c-2.0037 0-3.6637 1.66-3.6637 3.6637v109.57c0 2.0037 1.66 3.6771 3.6637 3.6771h68.558l-0.25312 1.0125-2.8644 14.335h-8.3932v5.3291h49.067v-5.3291h-8.3933l-2.8644-14.335-0.21307-1.0125h68.518c2.0037 0 3.6637-1.6733 3.6637-3.6771v-109.57c0.0427-2.0037-1.62-3.6637-3.6237-3.6637zm81.601 3.4505c0.89528 0 1.6254 0.68747 1.6254 1.6255 0 0.8952-0.73012 1.6253-1.6254 1.6253-0.89529 0-1.6254-0.73013-1.6254-1.6253 0-0.89533 0.73011-1.6255 1.6254-1.6255zm-75.459 7.594h150.92v85.984h-150.92z" fill="#d5d5d5"/>
   <path transform="matrix(1.3333 0 0 1.3333 42.41 91.858)" d="m2.7478 0c-1.5028 0-2.7478 1.245-2.7478 2.7478v82.174c0 1.5028 1.245 2.7578 2.7478 2.7578h51.419l-0.18984 0.75939-2.1483 10.751h-6.2949v3.9968h36.8v-3.9968h-6.295l-2.1483-10.751-0.15987-0.75939h51.389c1.5028 0 2.7478-1.255 2.7478-2.7578v-82.174c0.032-1.5028-1.2151-2.7478-2.7178-2.7478zm61.201 2.5879c0.67146 0 1.219 0.51558 1.219 1.219 0 0.67146-0.54759 1.219-1.219 1.219-0.67147 0-1.219-0.54756-1.219-1.219 0-0.67146 0.54759-1.219 1.219-1.219zm-56.595 5.6954h113.19v64.488h-113.19z" clip-path="url(#clipPath59)" fill="none" stroke="#5e5e5e" stroke-width="2"/>
   <path d="m127.66 96.534c-20.509 0-32.373 10.249-36.579 24.898-1.9848 6.9467-2.0763 15.128-1.462 24.012-1.1341-0.0472-2.4101-0.0472-3.7805 0-6.6631 0.3308-1.7573 15.695 2.732 24.721 0.94512 1.8431 2.9299 1.4177 3.7805 1.1815 1.7012 15.264 4.0729 19.842 10.027 26.552l-0.10337 7.2804c-0.14176 9.9237-5.8154 18.143-15.078 23.436-0.75611 0.42533-1.5033 0.85067-2.2594 1.1815-4.3476 2.1265-9.1204 3.2075-13.941 3.3965-22.305 1.0396-29.633 11.206-36.343 24.485h186c-6.7104-13.279-14.038-23.445-36.343-24.485-4.8201-0.23627-9.6403-1.27-13.941-3.3965-0.7088-0.37814-1.456-0.75614-2.2593-1.1815-9.2623-5.2927-14.983-13.512-15.078-23.436l-0.0885-7.2804c5.9543-6.7104 8.2639-11.288 10.012-26.552 0.80334 0.28347 2.8353 0.7088 3.7804-1.1815 4.5367-9.0259 9.4099-24.39 2.7468-24.721-1.3704-0.0472-2.6464-0.0945-3.7805 0 0.6144-8.8369 0.55533-17.065-1.4767-24.012-4.2059-14.649-16.055-24.898-36.564-24.898z" fill="#fff"/>
   <path transform="matrix(1.3333 0 0 1.3333 34.657 96.534)" d="m69.754 0c-15.382 0-24.28 7.6865-27.434 18.674-1.4886 5.21-1.5572 11.346-1.0965 18.009-0.85061-0.03544-1.8076-0.03543-2.8354 0-4.9973 0.2481-1.318 11.771 2.049 18.541 0.70884 1.3822 2.1974 1.0633 2.8354 0.88605 1.2759 11.448 3.0547 14.881 7.5204 19.914l-0.07753 5.4603c-0.10633 7.4428-4.3616 13.608-11.308 17.577-0.56707 0.31898-1.1275 0.63797-1.6946 0.88605-3.2607 1.5949-6.8403 2.4056-10.455 2.5474-16.729 0.7797-22.224 8.4042-27.257 18.363h139.5c-5.0328-9.9592-10.528-17.584-27.257-18.363-3.615-0.1772-7.2301-0.9525-10.455-2.5474-0.5316-0.28353-1.092-0.56706-1.6945-0.88605-6.9467-3.9695-11.237-10.134-11.308-17.577l-0.06646-5.4603c4.4657-5.0328 6.1979-8.4662 7.5093-19.914 0.60252 0.21265 2.1265 0.53162 2.8354-0.88605 3.4025-6.7694 7.0574-18.293 2.0601-18.541-1.0278-0.03544-1.9847-0.07088-2.8354 0 0.46074-6.6277 0.41643-12.799-1.1076-18.009-3.1543-10.987-12.041-18.674-27.423-18.674z" clip-path="url(#clipPath62)" fill="none" stroke="#000"/>
   <path d="m85.852 143.6c0.23089-30.42 19.435-54.851 42.49-54.053 22.065 0.764 39.477 24.58 39.256 53.694z" fill="#d5d5d5"/>
   <path transform="matrix(1.3331 .02327 -.02327 1.3331 86.804 88.817)" d="m0.0026602 41.093c-0.22503-22.815 13.856-41.386 31.155-41.089 16.556 0.28404 29.925 17.916 30.14 39.75z" clip-path="url(#clipPath65)" fill="none" stroke="#000" stroke-width=".5"/>
   <path d="m93.997 129.28c1.3017 1.3017 1.3017 3.4123 0 4.714-1.3017 1.3017-3.4123 1.3017-4.7141 0-1.3017-1.3017-1.3017-3.4123 0-4.714 1.3017-1.3017 3.4123-1.3017 4.7141 0z" fill="#5e5e5e"/>
   <path transform="matrix(1.3333 0 0 1.3333 4.3358 134.9)" d="m0 92.77c56.366-2.7747 78.368-33.698 66.006-92.77" clip-path="url(#clipPath68)" fill="none" stroke="#000" stroke-width=".25"/>
   <path d="m122.69 108.98c1.1991 1.3017 1.1991 3.4123 0 4.714-1.199 1.3017-3.1431 1.3017-4.3422 0-1.1991-1.3017-1.1991-3.4123 0-4.714 1.1991-1.3017 3.1431-1.3017 4.3422 0z" fill="#5e5e5e"/>
   <path transform="matrix(1.3333 0 0 1.3333 5.1372 114.65)" d="m0 109.12c65.572-0.2842 94.51-36.659 86.814-109.12" clip-path="url(#clipPath71)" fill="none" stroke="#000" stroke-width=".25"/>
   <path d="m101.29 112.45c1.3018 1.2757 1.3018 3.344 0 4.6197-1.3017 1.2757-3.4123 1.2757-4.714 0-1.3017-1.2757-1.3017-3.344 0-4.6197 1.3017-1.2757 3.4123-1.2757 4.714 0z" fill="#5e5e5e"/>
   <path transform="matrix(1.3333 0 0 1.3333 1.3333 118)" d="m0 105.92c57.301 3.7057 81.795-31.601 73.482-105.92" clip-path="url(#clipPath74)" fill="none" stroke="#000" stroke-width=".25"/>
   <path d="m111.06 100.61c1.1839 1.308 1.1839 3.4289 0 4.7371-1.1838 1.3081-3.1033 1.3081-4.2871 0-1.1839-1.3081-1.1839-3.4291 0-4.7371 1.1838-1.3081 3.1033-1.3081 4.2871 0z" fill="#5e5e5e"/>
   <path transform="matrix(1.3333 0 0 1.3333 1.3615 106.23)" d="m0 114.31c69.997-2.764 97.065-40.868 81.205-114.31" clip-path="url(#clipPath77)" fill="none" stroke="#000" stroke-width=".25"/>
   <path d="m146.63 100.98c1.1839 1.308 1.1839 3.4289 0 4.7371-1.1839 1.308-3.1033 1.308-4.2872 0-1.1839-1.3081-1.1839-3.4291 0-4.7371 1.1839-1.3081 3.1033-1.3081 4.2872 0z" fill="#5e5e5e"/>
   <path transform="matrix(1.3333 0 0 1.3333 7.5904 106.7)" d="m0 115.36c68.041 1.2716 102.26-37.183 102.67-115.36" clip-path="url(#clipPath80)" fill="none" stroke="#000" stroke-width=".25"/>
   <path d="m157.29 112.98c1.1839 1.308 1.1839 3.4289 0 4.7371-1.1839 1.308-3.1033 1.308-4.2872 0-1.1839-1.3081-1.1839-3.4291 0-4.7371 1.1839-1.3081 3.1033-1.3081 4.2872 0z" fill="#5e5e5e"/>
   <path transform="matrix(1.3333 0 0 1.3333 2.1125 118.69)" d="m0 105.19c69.005 10.163 107.19-24.899 114.56-105.19" clip-path="url(#clipPath83)" fill="none" stroke="#000" stroke-width=".25"/>
   <path d="m162.8 128.98c1.1839 1.3081 1.1839 3.4291 0 4.7371-1.1839 1.3081-3.1032 1.3081-4.2871 0-1.1839-1.308-1.1839-3.4289 0-4.7371 1.1839-1.308 3.1032-1.308 4.2871 0z" fill="#5e5e5e"/>
   <path transform="matrix(1.3333 0 0 1.3333 7.0083 134.66)" d="m0 93.939c66.643 3.3549 104.93-27.958 114.88-93.939" clip-path="url(#clipPath86)" fill="none" stroke="#000" stroke-width=".25"/>
   <path d="m139.06 108.98c1.1839 1.308 1.1839 3.4289 0 4.7371-1.1839 1.308-3.1033 1.308-4.2872 0-1.1839-1.3081-1.1839-3.4291 0-4.7371 1.1839-1.3081 3.1033-1.3081 4.2872 0z" fill="#5e5e5e"/>
   <path transform="matrix(1.3333 0 0 1.3333 10.622 114.7)" d="m0 109.23c65.198-0.7615 96.799-37.173 94.802-109.23" clip-path="url(#clipPath89)" fill="none" stroke="#000" stroke-width=".25"/>
   <path d="m129.88 92.696c1.4239 1.4233 1.4239 3.7309 0 5.1543-1.4238 1.4233-3.7324 1.4233-5.1562 0-1.4238-1.4233-1.4238-3.7309 0-5.1543 1.4238-1.4233 3.7324-1.4233 5.1562 0z" fill="#5e5e5e"/>
   <path transform="matrix(1.3333 0 0 1.3333 5.6881 98.89)" d="m0 120.92c71.376 4.066 101.89-36.239 91.556-120.92" clip-path="url(#clipPath92)" fill="none" stroke="#000" stroke-width=".25"/>
   <path d="m112.39 128.82c1.1838 1.3081 1.1838 3.4291 0 4.7371-1.1838 1.3081-3.1033 1.3081-4.2871 0-1.1839-1.308-1.1839-3.4289 0-4.7371 1.1838-1.308 3.1033-1.308 4.2871 0z" fill="#5e5e5e"/>
   <path transform="matrix(1.3333 0 0 1.3333 2.661 134.5)" d="m0 93.531c61.993-7.4523 89.016-38.629 81.07-93.531" clip-path="url(#clipPath95)" fill="none" stroke="#000" stroke-width=".25"/>
   <path d="m130.06 128.82c1.1838 1.3081 1.1838 3.4291 0 4.7371-1.1839 1.3081-3.1033 1.3081-4.2871 0-1.1838-1.308-1.1838-3.4289 0-4.7371 1.1839-1.308 3.1033-1.308 4.2871 0z" fill="#5e5e5e"/>
   <path transform="matrix(1.3333 0 0 1.3333 4.6089 134.54)" d="m0 93.661c62.971 4.1399 93.819-27.08 92.542-93.661" clip-path="url(#clipPath98)" fill="none" stroke="#000" stroke-width=".25"/>
   <path d="m148.63 128.49c1.1839 1.3081 1.1839 3.4291 0 4.7371-1.1839 1.3081-3.1033 1.3081-4.2872 0-1.1839-1.308-1.1839-3.4289 0-4.7371 1.1839-1.308 3.1033-1.308 4.2872 0z" fill="#5e5e5e"/>
   <path transform="matrix(1.3333 0 0 1.3333 5.1959 134.21)" d="m0 94.646c67.972 2.6227 103.27-28.926 105.88-94.646" clip-path="url(#clipPath101)" fill="none" stroke="#000" stroke-width=".25"/>
   <path d="m213.26 22.876c2.6037-11.332 11.87-19.665 24.048-22.745 13.398-3.3888 27.552 0.74733 36.231 11.217 4.8001-2.5551 10.024-4.2184 15.417-4.9096 8.8728-1.1371 17.876 0.4 25.849 4.1609 3.7 1.7452 7.2056 4.0044 9.6215 7.3105 5.5388 7.5797 4.2816 18.15-2.8803 24.22 14.645-8.5425 29.521 10.718 17.554 22.729-1.7457 1.752-4.0693 2.8088-6.5371 2.9729 11.89 8.8667 3.8696 27.726-10.765 25.314-3.4489-0.56853-6.4048-2.7813-7.922-5.9304-1.1147 7.9019-6.1817 14.69-13.441 18.005-12.708 5.8041-27.706 0.05-33.271-12.765-3.0927 4.4056-7.4189 7.7987-12.435 9.7523-8.8349 3.4415-18.909 2.1504-25.989-4.0964-3.8416-3.3899-6.3899-8.0061-7.2109-13.063-12.247 7.7003-28.424 3.924-35.996-8.4027-4.2555-6.9276-4.7716-15.522-1.3756-22.909-10.753-12.861-3.674-32.541 12.808-35.605 5.8764-1.0923 11.923 0.66867 16.293 4.7456z" fill="#fff"/>
   <path transform="matrix(1.3333 0 0 1.3333 179.04 -1.0273)" d="m25.668 17.928c1.9528-8.4991 8.9025-14.749 18.036-17.059 10.049-2.5416 20.664 0.56048 27.173 8.4127 3.6001-1.9162 7.5178-3.1638 11.563-3.6822 6.6546-0.85279 13.407 0.30004 19.387 3.1207 2.775 1.3089 5.4042 3.0034 7.2162 5.483 4.154 5.6847 3.2111 13.613-2.1603 18.165 10.984-6.4069 22.14 8.0388 13.165 17.047-1.3092 1.314-3.052 2.1066-4.9028 2.2297 8.9172 6.65 2.9022 20.795-8.0734 18.985-2.5867-0.42641-4.8036-2.086-5.9415-4.4477-0.836 5.9264-4.6363 11.017-10.08 13.504-9.5312 4.3531-20.779 0.03748-24.953-9.5737-2.3195 3.3042-5.5642 5.849-9.3259 7.3143-6.6262 2.581-14.182 1.6128-19.492-3.0724-2.8812-2.5424-4.7924-6.0046-5.4082-9.7974-9.1853 5.7751-21.318 2.9429-26.997-6.302-3.1917-5.1957-3.5787-11.642-1.0318-17.182-8.065-9.6454-2.7554-24.406 9.6058-26.704 4.4073-0.81923 8.9419 0.50152 12.22 3.5592z" clip-path="url(#clipPath104)" fill="none" stroke="#000" stroke-width="1.5"/>
   <path d="m210.48 101.31c4.4575 4.4087 4.4575 11.557 0 15.965-4.4575 4.4087-11.684 4.4087-16.142 0-4.4575-4.4087-4.4575-11.557 0-15.965 4.4575-4.4087 11.684-4.4087 16.142 0z" fill="#fff"/>
   <path transform="matrix(1.3333 0 0 1.3333 190.99 98.003)" d="m14.614 2.4799c3.3431 3.3065 3.3431 8.6674 0 11.974s-8.7633 3.3065-12.106 0c-3.3431-3.3065-3.3431-8.6674 0-11.974 3.3431-3.3065 8.7633-3.3065 12.106 0z" clip-path="url(#clipPath107)" fill="none" stroke="#000" stroke-width="1.5"/>
   <path d="m182.37 122.62c2.6035 2.6035 2.6035 6.8247 0 9.4281-2.6035 2.6035-6.8247 2.6035-9.4281 0-2.6035-2.6035-2.6035-6.8247 0-9.4281 2.6035-2.6035 6.8247-2.6035 9.4281 0z" fill="#fff"/>
   <path transform="matrix(1.3333 0 0 1.3333 170.99 120.67)" d="m8.5355 1.4645c1.9526 1.9526 1.9526 5.1184 0 7.0711-1.9526 1.9526-5.1184 1.9526-7.0711 0-1.9526-1.9526-1.9526-5.1184 0-7.0711 1.9526-1.9526 5.1184-1.9526 7.0711 0z" clip-path="url(#clipPath110)" fill="none" stroke="#000" stroke-width="1.5"/>
   <path transform="matrix(1.3333 0 0 1.3333 197.58 62.112)" d="m0.90234-11.811v-1.6055h8.8008v1.3008c-0.86719 0.91406-1.7285 2.1387-2.5781 3.668-0.85254 1.5234-1.5088 3.0938-1.9688 4.7109-0.33691 1.1426-0.55078 2.3877-0.64453 3.7383h-1.7109c0.014648-1.0693 0.22266-2.3613 0.62109-3.8789 0.4043-1.5146 0.98438-2.9766 1.7344-4.3828 0.75586-1.4062 1.5586-2.5898 2.4023-3.5508zm11.388 11.812v-1.8984h1.8984v1.8984zm5.2793 0v-1.8984h1.8984v1.8984zm4.5967-3.1406 1.6055-0.15234c0.13184 0.75879 0.38965 1.3096 0.77344 1.6523 0.38086 0.33691 0.87305 0.50391 1.4766 0.50391 0.51562 0 0.96387-0.11719 1.3477-0.35156 0.38965-0.24023 0.70606-0.55664 0.94922-0.94922 0.24902-0.38965 0.45703-0.91699 0.62109-1.582 0.16992-0.6709 0.25781-1.3535 0.25781-2.0508 0-0.070312-0.0059-0.17871-0.01172-0.32812-0.33691 0.5332-0.79395 0.9668-1.3711 1.3008-0.58008 0.32812-1.2041 0.49219-1.875 0.49219-1.125 0-2.0801-0.4043-2.8594-1.2188-0.78223-0.82031-1.1719-1.8984-1.1719-3.2344 0-1.3828 0.4043-2.4902 1.2188-3.3281 0.81152-0.84375 1.8311-1.2656 3.0586-1.2656 0.88184 0 1.6904 0.24024 2.4258 0.71484 0.73242 0.47754 1.2891 1.1572 1.6641 2.0391 0.38086 0.87598 0.57422 2.1504 0.57422 3.8203 0 1.7344-0.1875 3.1172-0.5625 4.1484s-0.9375 1.8164-1.6875 2.3555c-0.74414 0.53906-1.6143 0.80859-2.6133 0.80859-1.0635 0-1.9336-0.29297-2.6133-0.87891-0.67383-0.5918-1.0752-1.4238-1.207-2.4961zm6.832-6c0-0.96094-0.25781-1.7227-0.77344-2.2852-0.50976-0.5625-1.1191-0.84375-1.8281-0.84375-0.74414 0-1.3916 0.30469-1.9453 0.91406-0.54785 0.60352-0.82031 1.3828-0.82031 2.3438 0 0.86719 0.25781 1.5762 0.77344 2.1211 0.52148 0.53906 1.1719 0.80859 1.9453 0.80859 0.77344 0 1.4062-0.26953 1.8984-0.80859 0.49805-0.54492 0.75-1.2949 0.75-2.25zm4.9102 9.1406v-1.8984h1.8984v1.8984zm6.3398 0v-1.8984h1.8984v1.8984zm6.3281 0v-1.8984h1.9102v1.8984zm4.9131-3.5859 1.6758-0.22266c0.1875 0.94629 0.50976 1.6289 0.97266 2.0508 0.45996 0.41602 1.0225 0.62109 1.6875 0.62109 0.7793 0 1.4414-0.27246 1.9805-0.82031 0.54492-0.54492 0.82031-1.2217 0.82031-2.0273 0-0.76465-0.25195-1.3945-0.75-1.8867-0.50098-0.49805-1.1367-0.75-1.9102-0.75-0.32227 0-0.71484 0.064453-1.1836 0.1875l0.1875-1.4648c0.1084 0.00879 0.19922 0.011719 0.26953 0.011719 0.70898 0 1.3477-0.18164 1.9102-0.55078 0.56836-0.375 0.85547-0.94922 0.85547-1.7227 0-0.60938-0.20801-1.1133-0.62109-1.5117-0.41602-0.4043-0.94629-0.60938-1.5938-0.60938-0.65625 0-1.2012 0.20801-1.6289 0.62109-0.43066 0.40723-0.70898 1.0166-0.83203 1.8281l-1.6758-0.29297c0.20215-1.125 0.66797-1.9922 1.3945-2.6016 0.72656-0.61523 1.623-0.92578 2.6953-0.92578 0.74121 0 1.4238 0.16113 2.0508 0.48047 0.62402 0.31348 1.1016 0.74707 1.4297 1.3008 0.33398 0.54785 0.50391 1.1309 0.50391 1.7461 0 0.59473-0.16113 1.1338-0.48047 1.6172-0.31348 0.47754-0.7793 0.86133-1.3945 1.1484 0.80273 0.18164 1.4297 0.5625 1.875 1.1484 0.44531 0.58594 0.66797 1.3184 0.66797 2.1914 0 1.1895-0.43359 2.1973-1.3008 3.0234-0.86719 0.8291-1.9629 1.2422-3.2812 1.2422-1.1953 0-2.1885-0.35449-2.9766-1.0664-0.79102-0.70898-1.2393-1.6318-1.3477-2.7656zm11.493 3.5859v-1.8984h1.8984v1.8984zm5.2793 0v-1.8984h1.8984v1.8984zm13.011-10.266-1.6641 0.12891c-0.14941-0.65625-0.36035-1.1309-0.63281-1.4297-0.4541-0.47461-1.0078-0.71484-1.6641-0.71484-0.5332 0-1.002 0.14941-1.4062 0.44531-0.52441 0.38379-0.9375 0.94336-1.2422 1.6758-0.30469 0.73535-0.46289 1.7871-0.46875 3.1523 0.39844-0.61523 0.88476-1.0723 1.4648-1.3711 0.58594-0.2959 1.1953-0.44531 1.8281-0.44531 1.1162 0 2.0654 0.41016 2.8477 1.2305 0.7793 0.82031 1.1719 1.8809 1.1719 3.1758 0 0.85254-0.18457 1.6465-0.55078 2.3789-0.36914 0.73535-0.87598 1.2979-1.5234 1.6875-0.6416 0.38965-1.3682 0.58594-2.1797 0.58594-1.3916 0-2.5283-0.50977-3.4102-1.5352-0.87598-1.0225-1.3125-2.71-1.3125-5.0625 0-2.625 0.4834-4.5352 1.4531-5.7305 0.84961-1.0371 1.9922-1.5586 3.4219-1.5586 1.0693 0 1.9453 0.30176 2.625 0.90234 0.68555 0.59473 1.1016 1.4238 1.2422 2.4844zm-6.8203 5.8594c0 0.58008 0.12012 1.1309 0.36328 1.6523 0.24024 0.52441 0.58008 0.92578 1.0195 1.207 0.44531 0.27539 0.90527 0.41016 1.3828 0.41016 0.70898 0 1.3154-0.28418 1.8164-0.85547 0.50684-0.56836 0.76172-1.3418 0.76172-2.3203 0-0.9375-0.25195-1.6758-0.75-2.2148-0.50098-0.54492-1.1309-0.82031-1.8867-0.82031-0.75879 0-1.4004 0.27539-1.9219 0.82031-0.52441 0.53906-0.78516 1.248-0.78516 2.1211zm9.6533 4.4063v-1.8984h1.8984v1.8984zm5.2793 0v-1.8984h1.8984v1.8984z" clip-path="url(#clipPath112)" aria-label="7..9…3..6.."/>
  </g>
  <path d="m213.26 670.62c2.6037-11.332 11.87-19.665 24.048-22.745 13.398-3.3888 27.552 0.74733 36.231 11.217 4.8001-2.5551 10.024-4.2184 15.417-4.9096 8.8728-1.1371 17.876 0.4 25.849 4.1609 3.7 1.7452 7.2056 4.0044 9.6215 7.3105 5.5388 7.5797 4.2816 18.15-2.8803 24.22 14.645-8.5425 29.521 10.718 17.554 22.729-1.7457 1.752-4.0693 2.8088-6.5371 2.9729 11.89 8.8667 3.8696 27.726-10.765 25.314-3.4489-0.56853-6.4048-2.7813-7.922-5.9304-1.1147 7.9019-6.1817 14.69-13.441 18.005-12.708 5.8041-27.706 0.05-33.271-12.765-3.0927 4.4056-7.4189 7.7987-12.435 9.7523-8.8349 3.4415-18.909 2.1504-25.989-4.0964-3.8416-3.3899-6.3899-8.0061-7.2109-13.063-12.247 7.7003-28.424 3.924-35.996-8.4027-4.2555-6.9276-4.7716-15.522-1.3756-22.909-10.753-12.861-3.674-32.541 12.808-35.605 5.8764-1.0923 11.923 0.66866 16.293 4.7456z" fill="#fff"/>
  <g>
   <path d="m46.074 394.26c-2.0037 0-3.6637 1.66-3.6637 3.6637v109.57c0 2.0037 1.66 3.6771 3.6637 3.6771h68.558l-0.25312 1.0125-2.8644 14.335h-8.3932v5.3291h49.067v-5.3291h-8.3933l-2.8644-14.335-0.21307-1.0125h68.518c2.0037 0 3.6637-1.6735 3.6637-3.6771v-109.57c0.0427-2.0037-1.62-3.6637-3.6237-3.6637zm81.601 3.4505c0.89528 0 1.6254 0.68747 1.6254 1.6255 0 0.8952-0.73012 1.6253-1.6254 1.6253-0.89529 0-1.6254-0.73013-1.6254-1.6253 0-0.89533 0.73011-1.6255 1.6254-1.6255zm-75.459 7.594h150.92v85.984h-150.92z" fill="#d5d5d5"/>
   <path transform="matrix(1.3333 0 0 1.3333 42.41 394.26)" d="m2.7478 0c-1.5028 0-2.7478 1.245-2.7478 2.7478v82.174c0 1.5028 1.245 2.7578 2.7478 2.7578h51.419l-0.18984 0.75939-2.1483 10.751h-6.2949v3.9968h36.8v-3.9968h-6.295l-2.1483-10.751-0.15987-0.75939h51.389c1.5028 0 2.7478-1.255 2.7478-2.7578v-82.174c0.032-1.5028-1.2151-2.7478-2.7178-2.7478zm61.201 2.5879c0.67146 0 1.219 0.51558 1.219 1.219 0 0.67146-0.54759 1.219-1.219 1.219-0.67147 0-1.219-0.54756-1.219-1.219 0-0.67146 0.54759-1.219 1.219-1.219zm-56.595 5.6954h113.19v64.488h-113.19z" clip-path="url(#clipPath5)" fill="none" stroke="#5e5e5e" stroke-width="2"/>
   <path d="m127.66 398.94c-20.509 0-32.373 10.249-36.579 24.898-1.9848 6.9467-2.0763 15.128-1.462 24.012-1.1341-0.0472-2.4101-0.0472-3.7805 0-6.6631 0.3308-1.7573 15.695 2.732 24.721 0.94512 1.8431 2.9299 1.4177 3.7805 1.1815 1.7012 15.264 4.0729 19.842 10.027 26.552l-0.10337 7.2804c-0.14176 9.9237-5.8154 18.143-15.078 23.436-0.75611 0.42534-1.5033 0.85067-2.2594 1.1815-4.3476 2.1264-9.1204 3.2075-13.941 3.3965-22.305 1.0396-29.633 11.206-36.343 24.485h186c-6.7104-13.279-14.038-23.445-36.343-24.485-4.8201-0.2364-9.6403-1.27-13.941-3.3965-0.7088-0.37813-1.456-0.75613-2.2593-1.1815-9.2623-5.2927-14.983-13.512-15.078-23.436l-0.0885-7.2804c5.9543-6.7104 8.2639-11.288 10.012-26.552 0.80334 0.28346 2.8353 0.7088 3.7804-1.1815 4.5367-9.0259 9.4099-24.39 2.7468-24.721-1.3704-0.0472-2.6464-0.0945-3.7805 0 0.6144-8.8369 0.55533-17.065-1.4767-24.012-4.2059-14.649-16.055-24.898-36.564-24.898z" fill="#fff"/>
   <path transform="matrix(1.3333 0 0 1.3333 34.657 398.94)" d="m69.754 0c-15.382 0-24.28 7.6865-27.434 18.674-1.4886 5.21-1.5572 11.346-1.0965 18.009-0.85061-0.03544-1.8076-0.03543-2.8354 0-4.9973 0.2481-1.318 11.771 2.049 18.541 0.70884 1.3822 2.1974 1.0633 2.8354 0.88605 1.2759 11.448 3.0547 14.881 7.5204 19.914l-0.07753 5.4603c-0.10633 7.4428-4.3616 13.608-11.308 17.577-0.56707 0.31898-1.1275 0.63797-1.6946 0.88605-3.2607 1.5949-6.8403 2.4056-10.455 2.5474-16.729 0.7797-22.224 8.4042-27.257 18.363h139.5c-5.0328-9.9592-10.528-17.584-27.257-18.363-3.615-0.1772-7.2301-0.9525-10.455-2.5474-0.5316-0.28353-1.092-0.56706-1.6945-0.88605-6.9467-3.9695-11.237-10.134-11.308-17.577l-0.06646-5.4603c4.4657-5.0328 6.1979-8.4662 7.5093-19.914 0.60252 0.21265 2.1265 0.53162 2.8354-0.88605 3.4025-6.7694 7.0574-18.293 2.0601-18.541-1.0278-0.03544-1.9847-0.07088-2.8354 0 0.46074-6.6277 0.41643-12.799-1.1076-18.009-3.1543-10.987-12.041-18.674-27.423-18.674z" clip-path="url(#clipPath8)" fill="none" stroke="#000"/>
   <path d="m85.852 446.01c0.23089-30.42 19.435-54.851 42.49-54.053 22.065 0.764 39.477 24.58 39.256 53.694z" fill="#d5d5d5"/>
   <path transform="matrix(1.3331 .02327 -.02327 1.3331 86.804 391.22)" d="m0.0026602 41.093c-0.22503-22.815 13.856-41.386 31.155-41.089 16.556 0.28404 29.925 17.916 30.14 39.75z" clip-path="url(#clipPath11)" fill="none" stroke="#000" stroke-width=".5"/>
   <path d="m93.997 431.69c1.3017 1.3017 1.3017 3.4123 0 4.714s-3.4123 1.3017-4.7141 0c-1.3017-1.3017-1.3017-3.4123 0-4.714 1.3017-1.3017 3.4123-1.3017 4.7141 0z" fill="#5e5e5e"/>
   <path transform="matrix(1.3333 0 0 1.3333 4.3358 437.31)" d="m0 92.77c56.366-2.7747 78.368-33.698 66.006-92.77" clip-path="url(#clipPath14)" fill="none" stroke="#000" stroke-width=".25"/>
   <path d="m122.69 411.39c1.1991 1.3017 1.1991 3.4123 0 4.714-1.199 1.3017-3.1431 1.3017-4.3422 0-1.1991-1.3017-1.1991-3.4123 0-4.714 1.1991-1.3017 3.1431-1.3017 4.3422 0z" fill="#5e5e5e"/>
   <path transform="matrix(1.3333 0 0 1.3333 5.1372 417.05)" d="m0 109.12c65.572-0.2842 94.51-36.659 86.814-109.12" clip-path="url(#clipPath17)" fill="none" stroke="#000" stroke-width=".25"/>
   <path d="m101.29 414.85c1.3018 1.2757 1.3018 3.3441 0 4.6199-1.3017 1.2757-3.4123 1.2757-4.714 0-1.3017-1.2757-1.3017-3.3441 0-4.6199 1.3017-1.2757 3.4123-1.2757 4.714 0z" fill="#5e5e5e"/>
   <path transform="matrix(1.3333 0 0 1.3333 1.3333 420.41)" d="m0 105.92c57.301 3.7057 81.795-31.601 73.482-105.92" clip-path="url(#clipPath20)" fill="none" stroke="#000" stroke-width=".25"/>
   <path d="m111.06 403.02c1.1839 1.308 1.1839 3.4289 0 4.7371-1.1838 1.308-3.1033 1.308-4.2871 0-1.1839-1.3081-1.1839-3.4291 0-4.7371 1.1838-1.3081 3.1033-1.3081 4.2871 0z" fill="#5e5e5e"/>
   <path transform="matrix(1.3333 0 0 1.3333 1.3615 408.64)" d="m0 114.31c69.997-2.764 97.065-40.868 81.205-114.31" clip-path="url(#clipPath23)" fill="none" stroke="#000" stroke-width=".25"/>
   <path d="m146.63 403.39c1.1839 1.3081 1.1839 3.4291 0 4.7371-1.1839 1.3081-3.1033 1.3081-4.2872 0-1.1839-1.308-1.1839-3.4289 0-4.7371 1.1839-1.308 3.1033-1.308 4.2872 0z" fill="#5e5e5e"/>
   <path transform="matrix(1.3333 0 0 1.3333 7.5904 409.11)" d="m0 115.36c68.041 1.2716 102.26-37.183 102.67-115.36" clip-path="url(#clipPath26)" fill="none" stroke="#000" stroke-width=".25"/>
   <path d="m157.29 415.39c1.1839 1.3081 1.1839 3.4291 0 4.7371-1.1839 1.3081-3.1033 1.3081-4.2872 0-1.1839-1.308-1.1839-3.4289 0-4.7371 1.1839-1.308 3.1033-1.308 4.2872 0z" fill="#5e5e5e"/>
   <path transform="matrix(1.3333 0 0 1.3333 2.1125 421.09)" d="m0 105.19c69.005 10.163 107.19-24.899 114.56-105.19" clip-path="url(#clipPath29)" fill="none" stroke="#000" stroke-width=".25"/>
   <path d="m162.8 431.39c1.1839 1.3081 1.1839 3.4291 0 4.7371-1.1839 1.3081-3.1032 1.3081-4.2871 0-1.1839-1.308-1.1839-3.4289 0-4.7371 1.1839-1.308 3.1032-1.308 4.2871 0z" fill="#5e5e5e"/>
   <path transform="matrix(1.3333 0 0 1.3333 7.0083 437.07)" d="m0 93.939c66.643 3.3549 104.93-27.958 114.88-93.939" clip-path="url(#clipPath32)" fill="none" stroke="#000" stroke-width=".25"/>
   <path d="m139.06 411.39c1.1839 1.3081 1.1839 3.4291 0 4.7371-1.1839 1.3081-3.1033 1.3081-4.2872 0-1.1839-1.308-1.1839-3.4289 0-4.7371 1.1839-1.308 3.1033-1.308 4.2872 0z" fill="#5e5e5e"/>
   <path transform="matrix(1.3333 0 0 1.3333 10.622 417.11)" d="m0 109.23c65.198-0.7615 96.799-37.173 94.802-109.23" clip-path="url(#clipPath35)" fill="none" stroke="#000" stroke-width=".25"/>
   <path d="m129.88 395.1c1.4239 1.4232 1.4239 3.7309 0 5.1543-1.4238 1.4233-3.7324 1.4233-5.1562 0-1.4238-1.4233-1.4238-3.7311 0-5.1543 1.4238-1.4233 3.7324-1.4233 5.1562 0z" fill="#5e5e5e"/>
   <path transform="matrix(1.3333 0 0 1.3333 5.6881 401.3)" d="m0 120.92c71.376 4.066 101.89-36.239 91.556-120.92" clip-path="url(#clipPath38)" fill="none" stroke="#000" stroke-width=".25"/>
   <path d="m112.39 431.23c1.1838 1.3081 1.1838 3.4289 0 4.7371-1.1838 1.3081-3.1033 1.3081-4.2871 0-1.1839-1.3081-1.1839-3.4289 0-4.7371 1.1838-1.3081 3.1033-1.3081 4.2871 0z" fill="#5e5e5e"/>
   <path transform="matrix(1.3333 0 0 1.3333 2.661 436.9)" d="m0 93.531c61.993-7.4523 89.016-38.629 81.07-93.531" clip-path="url(#clipPath41)" fill="none" stroke="#000" stroke-width=".25"/>
   <path d="m130.06 431.23c1.1838 1.3081 1.1838 3.4289 0 4.7371-1.1839 1.3081-3.1033 1.3081-4.2871 0-1.1838-1.3081-1.1838-3.4289 0-4.7371 1.1839-1.3081 3.1033-1.3081 4.2871 0z" fill="#5e5e5e"/>
   <path transform="matrix(1.3333 0 0 1.3333 4.6089 436.95)" d="m0 93.661c62.971 4.1399 93.819-27.08 92.542-93.661" clip-path="url(#clipPath44)" fill="none" stroke="#000" stroke-width=".25"/>
   <path d="m148.63 430.9c1.1839 1.3081 1.1839 3.4289 0 4.7371-1.1839 1.3081-3.1033 1.3081-4.2872 0-1.1839-1.3081-1.1839-3.4289 0-4.7371 1.1839-1.3081 3.1033-1.3081 4.2872 0z" fill="#5e5e5e"/>
   <path transform="matrix(1.3333 0 0 1.3333 5.1959 436.61)" d="m0 94.646c67.972 2.6227 103.27-28.926 105.88-94.646" clip-path="url(#clipPath47)" fill="none" stroke="#000" stroke-width=".25"/>
   <path transform="matrix(1.3333 0 0 1.3333 179.04 301.38)" d="m25.668 17.928c1.9528-8.4991 8.9025-14.749 18.036-17.059 10.049-2.5416 20.664 0.56048 27.173 8.4127 3.6001-1.9162 7.5178-3.1638 11.563-3.6822 6.6546-0.85279 13.407 0.30004 19.387 3.1207 2.775 1.3089 5.4042 3.0034 7.2162 5.483 4.154 5.6847 3.2111 13.613-2.1603 18.165 10.984-6.4069 22.14 8.0388 13.165 17.047-1.3092 1.314-3.052 2.1066-4.9028 2.2297 8.9172 6.65 2.9022 20.795-8.0734 18.985-2.5867-0.42641-4.8036-2.086-5.9415-4.4477-0.836 5.9264-4.6363 11.017-10.08 13.504-9.5312 4.3531-20.779 0.03748-24.953-9.5737-2.3195 3.3042-5.5642 5.849-9.3259 7.3143-6.6262 2.581-14.182 1.6128-19.492-3.0724-2.8812-2.5424-4.7924-6.0046-5.4082-9.7974-9.1853 5.7751-21.318 2.9429-26.997-6.302-3.1917-5.1957-3.5787-11.642-1.0318-17.182-8.065-9.6454-2.7554-24.406 9.6058-26.704 4.4073-0.81923 8.9419 0.50152 12.22 3.5592z" clip-path="url(#clipPath50)" fill="none" stroke="#000" stroke-width="1.5"/>
   <path d="m210.48 403.72c4.4575 4.4087 4.4575 11.557 0 15.965-4.4575 4.4087-11.684 4.4087-16.142 0-4.4575-4.4085-4.4575-11.556 0-15.965 4.4575-4.4087 11.684-4.4087 16.142 0z" fill="#fff"/>
   <path transform="matrix(1.3333 0 0 1.3333 190.99 400.41)" d="m14.614 2.4799c3.3431 3.3065 3.3431 8.6674 0 11.974s-8.7633 3.3065-12.106 0c-3.3431-3.3065-3.3431-8.6674 0-11.974 3.3431-3.3065 8.7633-3.3065 12.106 0z" clip-path="url(#clipPath53)" fill="none" stroke="#000" stroke-width="1.5"/>
   <path d="m182.37 425.03c2.6035 2.6035 2.6035 6.8245 0 9.4281-2.6035 2.6035-6.8247 2.6035-9.4281 0-2.6035-2.6036-2.6035-6.8247 0-9.4281s6.8247-2.6035 9.4281 0z" fill="#fff"/>
   <path transform="matrix(1.3333 0 0 1.3333 170.99 423.08)" d="m8.5355 1.4645c1.9526 1.9526 1.9526 5.1184 0 7.0711-1.9526 1.9526-5.1184 1.9526-7.0711 0-1.9526-1.9526-1.9526-5.1184 0-7.0711 1.9526-1.9526 5.1184-1.9526 7.0711 0z" clip-path="url(#clipPath56)" fill="none" stroke="#000" stroke-width="1.5"/>
   <path d="m280.66 338.19c-14.944 0-27.056 5.8144-27.056 12.983v1.9624c-0.0156 0.59213 0.37787 1.0917 0.87654 1.1541h52.358c0.49867-0.0624 0.8716-0.562 0.8716-1.1541v-1.9624c0-7.1681-12.107-12.982-27.051-12.983zm9.1841 17.263c-0.51427-1e-3 -1.0275 0.0585-1.534 0.17533l-2.4299 0.5892c-3.4283 0.84147-7.0317 0.826-10.46 0l-2.3812-0.57453c-0.99733-0.24934-2.056-0.24934-3.0533 0l-2.7269 0.672c-3.21 0.77906-6.576 0.84146-9.8172 0.15586-2.3841-0.49866-4.8336 0.49667-6.1892 2.5224-0.17146 0.26494-0.34 0.51227-0.51133 0.7304-0.24933 0.32734 0.10813 0.78014 0.482 0.6088l0.6088-0.26306c0.87267-0.38947 1.8203-0.57947 2.7708-0.57947h52.626c1.1375 0 2.2409 0.28347 3.2383 0.81333l0.18986 0.0924c0.374 0.17147 0.77627-0.2804 0.51134-0.6232-0.20254-0.26493-0.41974-0.57853-0.63787-0.90586-1.3401-1.9789-3.7399-2.9607-6.0773-2.4932l-0.77907 0.15586c-3.1945 0.63894-6.4844 0.56094-9.6321-0.23373l-2.6637-0.65253c-0.5064-0.12467-1.0197-0.188-1.5339-0.19zm-36.162 5.1765c-0.48307 0-0.88627 0.4032-0.88627 0.88627 0 0.48306 0.4032 0.89106 0.88627 0.89106h4.3048v0.0147c4.6592 0 9.224 1.2933 13.182 3.7399l1.5243 0.93493c0.57653 0.3584 1.2972 0.37493 1.8893 0.0633l2.8488-1.4951c4.0827-2.1348 8.6328-3.2577 13.245-3.2577h17.657c0.48307 0 0.88627-0.39253 0.88627-0.89106 0-0.48307-0.4032-0.88627-0.88627-0.88627zm38.382 2.946c-4.7216 0-9.3819 1.0908-13.62 3.1945l-3.8811 1.9137c-0.6856 0.3428-1.5116 0.3116-2.1816-0.0779l-1.12-0.73053c-4.1917-2.7425-9.0993-4.2073-14.117-4.2073-1.9323 0-3.8168 0.0292-3.8324 0.0292-0.91934 0-1.4063 0.81427-1.344 1.1104l0.0195 0.0779c0.0624 0.3272-0.0652 0.65053-0.34573 0.8376l-0.0292 0.034c-0.3896 0.26493-0.486 0.7948-0.18987 1.1688l0.0195 0.0145c0.18693 0.24934 0.21813 0.57654 0.0779 0.85707l-0.0779 0.1412c-0.20253 0.4052-0.0351 0.8872 0.37013 1.1055l0.0487 0.0145c0.21813 0.10907 0.376 0.31173 0.43827 0.54547l0.10706 0.4236c0.078 0.31173 0.5152 0.7792 1.232 0.7792h0.58934 52.324c-0.0272 0.0196 0.0449 0.0135 0.0828 0h0.40413c0.374 0.0156 1.3869-0.3584 1.4804-0.7012l0.12667-0.48707c0.0623-0.23373 0.23373-0.43627 0.46746-0.54533l0.1704-0.0779c0.4052-0.18707 0.59307-0.63693 0.45294-1.0421l-0.0925-0.37494c-0.078-0.20266-0.0633-0.42173 0.0145-0.6088l0.0925-0.1996c0.17147-0.374 0.0321-0.80933-0.32627-1.0275-0.3116-0.18707-0.43533-0.564-0.32626-0.8912 0.12466-0.3584-0.2532-1.1833-1.7336-1.1833h-0.0145l-0.15586 0.0147c-0.18694-0.0624-0.40507-0.1072-0.62334-0.1072zm-36.902 8.4001-0.32627 0.0147c-0.6856 0.0156-1.232 0.57453-1.232 1.2757v2.9755c0 2.0724 1.6829 3.7399 3.7399 3.7399h46.612c2.0725 0 3.7399-1.6831 3.7399-3.7399v-3.2724c0-0.52987-0.42467-0.96333-0.9544-0.9788l-0.58934-0.0147z"/>
   <path d="m224.23 341.32c-0.38506 0-0.68786 0.32707-0.66213 0.71107l2.5441 37.9c0.0233 0.34933 0.31494 0.62213 0.66507 0.62213h15.791c0.35026 0 0.64186-0.2728 0.6652-0.62213l2.544-37.9c0.0259-0.384-0.27707-0.71107-0.662-0.71107z"/>
   <path d="m226.76 321.61c-0.0323 1e-3 -0.0625 0.0171-0.0859 0.0429l-1.268 1.4007c-0.0468 0.0517-0.04 0.1328 0.012 0.17946l5.9736 5.3963c4e-3 3e-3 8e-3 8e-3 0.012 0.012 0.34187 0.38653 0.6392 0.74947 0.89747 1.1004l1.7207-1.2759c-0.3092-0.4196-0.66093-0.84933-1.0613-1.2993l-0.0389-0.0429-6.0673-5.482c-0.0259-0.0233-0.0613-0.0329-0.0936-0.0312zm7.4797 7.1597-1.7247 1.2759c0.0692 0.10133 0.13614 0.20026 0.19907 0.3004l1.8221-1.1276c-0.0937-0.14934-0.19213-0.29827-0.29653-0.44867zm0.4916 0.77253-1.826 1.1276c0.0645 0.1144 0.1264 0.22867 0.18333 0.34334l1.9157-0.9676c-0.0845-0.16907-0.17587-0.33507-0.27307-0.50334zm0.43307 0.8428-1.9196 0.9676c0.0535 0.12494 0.10253 0.25107 0.14826 0.37854l1.9976-0.796c-0.0685-0.186-0.14453-0.36814-0.22626-0.55014zm0.34733 0.9052-2.0017 0.796c0.0387 0.12974 0.0736 0.26347 0.10546 0.398l2.0601-0.61653c-0.0489-0.19667-0.1032-0.388-0.16387-0.57747zm0.24573 0.94427-2.064 0.6164c0.0241 0.1288 0.0472 0.25973 0.0663 0.39413l2.1031-0.4292c-0.03-0.19813-0.0659-0.392-0.10534-0.58133zm0.15614 0.952-2.1071 0.43307c0.0133 0.12293 0.0255 0.246 0.0352 0.37466l2.1304-0.24586c-0.0156-0.1916-0.0365-0.37934-0.0585-0.56187zm0.0819 0.9364-2.1304 0.24587c2.7e-4 5e-3 -1.3e-4 0.0107 0 0.0156v0.3356l2.1421-0.0703v-0.34337c-3e-3 -0.062-8e-3 -0.1224-0.012-0.18347zm0.012 0.90133-2.1421 0.0703 0.0196 36.396c0 0.0696 0.0552 0.12494 0.1248 0.12494h1.8924c0.0695 0 0.1248-0.0593 0.1248-0.1288z"/>
  </g>
  <g transform="translate(-2 -37.482)">
   <path transform="matrix(1.3333 0 0 1.3333 179.04 646.71)" d="m25.668 17.928c1.9528-8.4991 8.9025-14.749 18.036-17.059 10.049-2.5416 20.664 0.56048 27.173 8.4127 3.6001-1.9162 7.5178-3.1638 11.563-3.6822 6.6546-0.85279 13.407 0.30004 19.387 3.1207 2.775 1.3089 5.4042 3.0034 7.2162 5.483 4.154 5.6847 3.2111 13.613-2.1603 18.165 10.984-6.4069 22.14 8.0388 13.165 17.047-1.3092 1.314-3.052 2.1066-4.9028 2.2297 8.9172 6.65 2.9022 20.795-8.0734 18.985-2.5867-0.42641-4.8036-2.086-5.9415-4.4477-0.836 5.9264-4.6363 11.017-10.08 13.504-9.5312 4.3531-20.779 0.03748-24.953-9.5737-2.3195 3.3042-5.5642 5.849-9.3259 7.3143-6.6262 2.581-14.182 1.6128-19.492-3.0724-2.8812-2.5424-4.7924-6.0046-5.4082-9.7974-9.1853 5.7751-21.318 2.9429-26.997-6.302-3.1917-5.1957-3.5787-11.642-1.0318-17.182-8.065-9.6454-2.7554-24.406 9.6058-26.704 4.4073-0.81923 8.9419 0.50152 12.22 3.5592z" clip-path="url(#clipPath160)" fill="none" stroke="#000" stroke-width="1.5"/>
   <g>
    <path d="m46.074 739.6c-2.0037 0-3.6637 1.66-3.6637 3.6637v109.57c0 2.0037 1.66 3.6771 3.6637 3.6771h68.558l-0.25312 1.0125-2.8644 14.335h-8.3932v5.3291h49.067v-5.3291h-8.3933l-2.8644-14.335-0.21307-1.0125h68.518c2.0037 0 3.6637-1.6733 3.6637-3.6771v-109.57c0.0427-2.0037-1.62-3.6637-3.6237-3.6637zm81.601 3.4507c0.89528 0 1.6254 0.68734 1.6254 1.6253 0 0.8952-0.73012 1.6253-1.6254 1.6253-0.89529 0-1.6254-0.73013-1.6254-1.6253 0-0.89534 0.73011-1.6253 1.6254-1.6253zm-75.459 7.5939h150.92v85.984h-150.92z" fill="#d5d5d5"/>
    <path transform="matrix(1.3333 0 0 1.3333 42.41 739.6)" d="m2.7478 0c-1.5028 0-2.7478 1.245-2.7478 2.7478v82.174c0 1.5028 1.245 2.7578 2.7478 2.7578h51.419l-0.18984 0.75939-2.1483 10.751h-6.2949v3.9968h36.8v-3.9968h-6.295l-2.1483-10.751-0.15987-0.75939h51.389c1.5028 0 2.7478-1.255 2.7478-2.7578v-82.174c0.032-1.5028-1.2151-2.7478-2.7178-2.7478zm61.201 2.5879c0.67146 0 1.219 0.51558 1.219 1.219 0 0.67146-0.54759 1.219-1.219 1.219-0.67147 0-1.219-0.54756-1.219-1.219 0-0.67146 0.54759-1.219 1.219-1.219zm-56.595 5.6954h113.19v64.488h-113.19z" clip-path="url(#clipPath115)" fill="none" stroke="#5e5e5e" stroke-width="2"/>
    <path d="m127.66 744.27c-20.509 0-32.373 10.249-36.579 24.898-1.9848 6.9467-2.0763 15.128-1.462 24.012-1.1341-0.0472-2.4101-0.0472-3.7805 0-6.6631 0.3308-1.7573 15.695 2.732 24.721 0.94512 1.8431 2.9299 1.4177 3.7805 1.1815 1.7012 15.264 4.0729 19.842 10.027 26.552l-0.10337 7.2804c-0.14176 9.9237-5.8154 18.143-15.078 23.436-0.75611 0.42533-1.5033 0.85067-2.2594 1.1815-4.3476 2.1265-9.1204 3.2075-13.941 3.3965-22.305 1.0396-29.633 11.206-36.343 24.485h186c-6.7104-13.279-14.038-23.445-36.343-24.485-4.8201-0.23627-9.6403-1.27-13.941-3.3965-0.7088-0.378-1.456-0.75614-2.2593-1.1815-9.2623-5.2927-14.983-13.512-15.078-23.436l-0.0885-7.2804c5.9543-6.7104 8.2639-11.288 10.012-26.552 0.80334 0.2836 2.8353 0.7088 3.7804-1.1815 4.5367-9.0259 9.4099-24.39 2.7468-24.721-1.3704-0.0472-2.6464-0.0945-3.7805 0 0.6144-8.8368 0.55533-17.065-1.4767-24.012-4.2059-14.649-16.055-24.898-36.564-24.898z" fill="#fff"/>
    <path transform="matrix(1.3333 0 0 1.3333 34.657 744.27)" d="m69.754 0c-15.382 0-24.28 7.6865-27.434 18.674-1.4886 5.21-1.5572 11.346-1.0965 18.009-0.85061-0.03544-1.8076-0.03543-2.8354 0-4.9973 0.2481-1.318 11.771 2.049 18.541 0.70884 1.3822 2.1974 1.0633 2.8354 0.88605 1.2759 11.448 3.0547 14.881 7.5204 19.914l-0.07753 5.4603c-0.10633 7.4428-4.3616 13.608-11.308 17.577-0.56707 0.31898-1.1275 0.63797-1.6946 0.88605-3.2607 1.5949-6.8403 2.4056-10.455 2.5474-16.729 0.7797-22.224 8.4042-27.257 18.363h139.5c-5.0328-9.9592-10.528-17.584-27.257-18.363-3.615-0.1772-7.2301-0.9525-10.455-2.5474-0.5316-0.28353-1.092-0.56706-1.6945-0.88605-6.9467-3.9695-11.237-10.134-11.308-17.577l-0.06646-5.4603c4.4657-5.0328 6.1979-8.4662 7.5093-19.914 0.60252 0.21265 2.1265 0.53162 2.8354-0.88605 3.4025-6.7694 7.0574-18.293 2.0601-18.541-1.0278-0.03544-1.9847-0.07088-2.8354 0 0.46074-6.6277 0.41643-12.799-1.1076-18.009-3.1543-10.987-12.041-18.674-27.423-18.674z" clip-path="url(#clipPath118)" fill="none" stroke="#000"/>
    <path d="m85.852 791.34c0.23089-30.42 19.435-54.851 42.49-54.053 22.065 0.764 39.477 24.58 39.256 53.694z" fill="#d5d5d5"/>
    <path transform="matrix(1.3331 .02327 -.02327 1.3331 86.804 736.56)" d="m0.0026602 41.093c-0.22503-22.815 13.856-41.386 31.155-41.089 16.556 0.28404 29.925 17.916 30.14 39.75z" clip-path="url(#clipPath121)" fill="none" stroke="#000" stroke-width=".5"/>
    <path d="m93.997 777.02c1.3017 1.3017 1.3017 3.4123 0 4.714-1.3017 1.3019-3.4123 1.3019-4.7141 0-1.3017-1.3017-1.3017-3.4123 0-4.714 1.3017-1.3017 3.4123-1.3017 4.7141 0z" fill="#5e5e5e"/>
    <path transform="matrix(1.3333 0 0 1.3333 4.3358 782.64)" d="m0 92.77c56.366-2.7747 78.368-33.698 66.006-92.77" clip-path="url(#clipPath124)" fill="none" stroke="#000" stroke-width=".25"/>
    <path d="m122.69 756.72c1.1991 1.3017 1.1991 3.4123 0 4.714-1.199 1.3017-3.1431 1.3017-4.3422 0-1.1991-1.3017-1.1991-3.4123 0-4.714 1.1991-1.3017 3.1431-1.3017 4.3422 0z" fill="#5e5e5e"/>
    <path transform="matrix(1.3333 0 0 1.3333 5.1372 762.39)" d="m0 109.12c65.572-0.2842 94.51-36.659 86.814-109.12" clip-path="url(#clipPath127)" fill="none" stroke="#000" stroke-width=".25"/>
    <path d="m101.29 760.19c1.3018 1.2757 1.3018 3.344 0 4.6197-1.3017 1.2757-3.4123 1.2757-4.714 0-1.3017-1.2757-1.3017-3.344 0-4.6197 1.3017-1.2757 3.4123-1.2757 4.714 0z" fill="#5e5e5e"/>
    <path transform="matrix(1.3333 0 0 1.3333 1.3333 765.74)" d="m0 105.92c57.301 3.7057 81.795-31.601 73.482-105.92" clip-path="url(#clipPath130)" fill="none" stroke="#000" stroke-width=".25"/>
    <path d="m111.06 748.35c1.1839 1.3081 1.1839 3.4289 0 4.7371-1.1838 1.3081-3.1033 1.3081-4.2871 0-1.1839-1.3081-1.1839-3.4289 0-4.7371 1.1838-1.3081 3.1033-1.3081 4.2871 0z" fill="#5e5e5e"/>
    <path transform="matrix(1.3333 0 0 1.3333 1.3615 753.97)" d="m0 114.31c69.997-2.764 97.065-40.868 81.205-114.31" clip-path="url(#clipPath133)" fill="none" stroke="#000" stroke-width=".25"/>
    <path d="m146.63 748.72c1.1839 1.308 1.1839 3.4289 0 4.7371-1.1839 1.3081-3.1033 1.3081-4.2872 0-1.1839-1.3081-1.1839-3.4291 0-4.7371 1.1839-1.3081 3.1033-1.3081 4.2872 0z" fill="#5e5e5e"/>
    <path transform="matrix(1.3333 0 0 1.3333 7.5904 754.44)" d="m0 115.36c68.041 1.2716 102.26-37.183 102.67-115.36" clip-path="url(#clipPath136)" fill="none" stroke="#000" stroke-width=".25"/>
    <path d="m157.29 760.72c1.1839 1.308 1.1839 3.4289 0 4.7371-1.1839 1.3081-3.1033 1.3081-4.2872 0-1.1839-1.3081-1.1839-3.4291 0-4.7371 1.1839-1.3081 3.1033-1.3081 4.2872 0z" fill="#5e5e5e"/>
    <path transform="matrix(1.3333 0 0 1.3333 2.1125 766.43)" d="m0 105.19c69.005 10.163 107.19-24.899 114.56-105.19" clip-path="url(#clipPath139)" fill="none" stroke="#000" stroke-width=".25"/>
    <path d="m162.8 776.72c1.1839 1.308 1.1839 3.4289 0 4.7371-1.1839 1.308-3.1032 1.308-4.2871 0-1.1839-1.3081-1.1839-3.4291 0-4.7371 1.1839-1.3081 3.1032-1.3081 4.2871 0z" fill="#5e5e5e"/>
    <path transform="matrix(1.3333 0 0 1.3333 7.0083 782.4)" d="m0 93.939c66.643 3.3549 104.93-27.958 114.88-93.939" clip-path="url(#clipPath142)" fill="none" stroke="#000" stroke-width=".25"/>
    <path d="m139.06 756.72c1.1839 1.308 1.1839 3.4289 0 4.7371s-3.1033 1.3081-4.2872 0-1.1839-3.4291 0-4.7371c1.1839-1.3081 3.1033-1.3081 4.2872 0z" fill="#5e5e5e"/>
    <path transform="matrix(1.3333 0 0 1.3333 10.622 762.44)" d="m0 109.23c65.198-0.7615 96.799-37.173 94.802-109.23" clip-path="url(#clipPath145)" fill="none" stroke="#000" stroke-width=".25"/>
    <path d="m129.88 740.44c1.4239 1.4233 1.4239 3.7309 0 5.1543-1.4238 1.4233-3.7324 1.4233-5.1562 0-1.4238-1.4233-1.4238-3.7309 0-5.1543 1.4238-1.4233 3.7324-1.4233 5.1562 0z" fill="#5e5e5e"/>
    <path transform="matrix(1.3333 0 0 1.3333 5.6881 746.63)" d="m0 120.92c71.376 4.066 101.89-36.239 91.556-120.92" clip-path="url(#clipPath148)" fill="none" stroke="#000" stroke-width=".25"/>
    <path d="m112.39 776.56c1.1838 1.308 1.1838 3.4289 0 4.7371-1.1838 1.308-3.1033 1.308-4.2871 0-1.1839-1.3081-1.1839-3.4291 0-4.7371 1.1838-1.3081 3.1033-1.3081 4.2871 0z" fill="#5e5e5e"/>
    <path transform="matrix(1.3333 0 0 1.3333 2.661 782.24)" d="m0 93.531c61.993-7.4523 89.016-38.629 81.07-93.531" clip-path="url(#clipPath151)" fill="none" stroke="#000" stroke-width=".25"/>
    <path d="m130.06 776.56c1.1838 1.308 1.1838 3.4289 0 4.7371-1.1839 1.308-3.1033 1.308-4.2871 0-1.1838-1.3081-1.1838-3.4291 0-4.7371 1.1839-1.3081 3.1033-1.3081 4.2871 0z" fill="#5e5e5e"/>
    <path transform="matrix(1.3333 0 0 1.3333 4.6089 782.28)" d="m0 93.661c62.971 4.1399 93.819-27.08 92.542-93.661" clip-path="url(#clipPath154)" fill="none" stroke="#000" stroke-width=".25"/>
    <path d="m148.63 776.23c1.1839 1.308 1.1839 3.4289 0 4.7371-1.1839 1.308-3.1033 1.308-4.2872 0-1.1839-1.3081-1.1839-3.4291 0-4.7371 1.1839-1.3081 3.1033-1.3081 4.2872 0z" fill="#5e5e5e"/>
    <path transform="matrix(1.3333 0 0 1.3333 5.1959 781.95)" d="m0 94.646c67.972 2.6227 103.27-28.926 105.88-94.646" clip-path="url(#clipPath157)" fill="none" stroke="#000" stroke-width=".25"/>
    <path d="m210.48 749.05c4.4575 4.4087 4.4575 11.557 0 15.965-4.4575 4.4087-11.684 4.4087-16.142 0-4.4575-4.4087-4.4575-11.557 0-15.965 4.4575-4.4087 11.684-4.4087 16.142 0z" fill="#fff"/>
    <path transform="matrix(1.3333 0 0 1.3333 190.99 745.74)" d="m14.614 2.4799c3.3431 3.3065 3.3431 8.6674 0 11.974s-8.7633 3.3065-12.106 0c-3.3431-3.3065-3.3431-8.6674 0-11.974 3.3431-3.3065 8.7633-3.3065 12.106 0z" clip-path="url(#clipPath163)" fill="none" stroke="#000" stroke-width="1.5"/>
    <path d="m182.37 770.36c2.6035 2.6035 2.6035 6.8247 0 9.4281-2.6035 2.6035-6.8247 2.6035-9.4281 0s-2.6035-6.8247 0-9.4281c2.6035-2.6035 6.8247-2.6035 9.4281 0z" fill="#fff"/>
    <path transform="matrix(1.3333 0 0 1.3333 170.99 768.41)" d="m8.5355 1.4645c1.9526 1.9526 1.9526 5.1184 0 7.0711-1.9526 1.9526-5.1184 1.9526-7.0711 0-1.9526-1.9526-1.9526-5.1184 0-7.0711 1.9526-1.9526 5.1184-1.9526 7.0711 0z" clip-path="url(#clipPath166)" fill="none" stroke="#000" stroke-width="1.5"/>
    <path transform="matrix(1.3333 0 0 1.3333 213 713.71)" d="m2.4481 7.1592v-32.93h6.9727v2.6133h-3.8086v27.691h3.8086v2.625zm65.221 0h-6.9727v-2.625h3.8086v-27.691h-3.8086v-2.6133h6.9727z" clip-path="url(#clipPath171)" aria-label="[     ]"/>
   </g>
  </g>
 </g>
</svg>
